<svg width="20" height="20" viewBox="0 0 20 20" fill="none" xmlns="http://www.w3.org/2000/svg">
<path d="M10.8659 19H10.1196C10.0516 19 9.98634 18.9729 9.93824 18.9247C9.89015 18.8765 9.86313 18.8111 9.86313 18.7429C9.86313 18.6747 9.89015 18.6093 9.93824 18.561C9.98634 18.5128 10.0516 18.4857 10.1196 18.4857H10.8659C10.9339 18.4857 10.9991 18.5128 11.0472 18.561C11.0953 18.6093 11.1223 18.6747 11.1223 18.7429C11.1223 18.8111 11.0953 18.8765 11.0472 18.9247C10.9991 18.9729 10.9339 19 10.8659 19Z" fill="#6C6C6C" stroke="#6C6C6C" stroke-width="0.5"/>
<path d="M18.1828 18.9999H15.2181C15.1501 18.9999 15.0848 18.9728 15.0367 18.9246C14.9886 18.8764 14.9616 18.811 14.9616 18.7428C14.9616 18.6746 14.9886 18.6092 15.0367 18.5609C15.0848 18.5127 15.1501 18.4856 15.2181 18.4856H18.1828C18.2508 18.4856 18.316 18.4585 18.3641 18.4103C18.4122 18.3621 18.4392 18.2967 18.4392 18.2285V7.02735H1.51292V18.2285C1.51292 18.2967 1.53994 18.3621 1.58803 18.4103C1.63613 18.4585 1.70136 18.4856 1.76938 18.4856H8.32447C8.39249 18.4856 8.45772 18.5127 8.50581 18.5609C8.55391 18.6092 8.58093 18.6746 8.58093 18.7428C8.58093 18.811 8.55391 18.8764 8.50581 18.9246C8.45772 18.9728 8.39249 18.9999 8.32447 18.9999H1.76938C1.56533 18.9999 1.36963 18.9186 1.22535 18.774C1.08106 18.6293 1 18.4331 1 18.2285V6.7702C1 6.70201 1.02702 6.6366 1.07512 6.58838C1.12321 6.54015 1.18844 6.51306 1.25646 6.51306H18.6957C18.7637 6.51306 18.8289 6.54015 18.877 6.58838C18.9251 6.6366 18.9521 6.70201 18.9521 6.7702V18.2285C18.9521 18.4331 18.8711 18.6293 18.7268 18.774C18.5825 18.9186 18.3868 18.9999 18.1828 18.9999Z" fill="#6C6C6C" stroke="#6C6C6C" stroke-width="0.5"/>
<path d="M13.4228 19H12.6611C12.5931 19 12.5279 18.9729 12.4798 18.9247C12.4317 18.8765 12.4047 18.8111 12.4047 18.7429C12.4047 18.6747 12.4317 18.6093 12.4798 18.561C12.5279 18.5128 12.5931 18.4857 12.6611 18.4857H13.4228C13.4908 18.4857 13.5561 18.5128 13.6041 18.561C13.6522 18.6093 13.6793 18.6747 13.6793 18.7429C13.6793 18.8111 13.6522 18.8765 13.6041 18.9247C13.5561 18.9729 13.4908 19 13.4228 19Z" fill="#6C6C6C" stroke="#6C6C6C" stroke-width="0.5"/>
<path d="M18.6957 7.02739H1.25646C1.18844 7.02739 1.12321 7.0003 1.07512 6.95207C1.02702 6.90385 1 6.83844 1 6.77024V3.44282C1 3.23822 1.08106 3.042 1.22535 2.89733C1.36963 2.75266 1.56533 2.67139 1.76938 2.67139H4.33397C4.40198 2.67139 4.46722 2.69848 4.51531 2.7467C4.56341 2.79493 4.59043 2.86033 4.59043 2.92853C4.59043 2.99673 4.56341 3.06213 4.51531 3.11036C4.46722 3.15858 4.40198 3.18567 4.33397 3.18567H1.76938C1.70136 3.18567 1.63613 3.21276 1.58803 3.26099C1.53994 3.30921 1.51292 3.37462 1.51292 3.44282V6.5131H18.4392V3.44282C18.4392 3.37462 18.4122 3.30921 18.3641 3.26099C18.316 3.21276 18.2508 3.18567 18.1828 3.18567H15.6182C15.5501 3.18567 15.4849 3.15858 15.4368 3.11036C15.3887 3.06213 15.3617 2.99673 15.3617 2.92853C15.3617 2.86033 15.3887 2.79493 15.4368 2.7467C15.4849 2.69848 15.5501 2.67139 15.6182 2.67139H18.1828C18.3868 2.67139 18.5825 2.75266 18.7268 2.89733C18.8711 3.042 18.9521 3.23822 18.9521 3.44282V6.77024C18.9521 6.83844 18.9251 6.90385 18.877 6.95207C18.8289 7.0003 18.7637 7.02739 18.6957 7.02739Z" fill="#6C6C6C" stroke="#6C6C6C" stroke-width="0.5"/>
<path d="M13.8229 3.18567H6.12914C6.06112 3.18567 5.99589 3.15858 5.9478 3.11036C5.8997 3.06213 5.87268 2.99673 5.87268 2.92853C5.87268 2.86033 5.8997 2.79493 5.9478 2.7467C5.99589 2.69848 6.06112 2.67139 6.12914 2.67139H13.8229C13.8909 2.67139 13.9562 2.69848 14.0043 2.7467C14.0524 2.79493 14.0794 2.86033 14.0794 2.92853C14.0794 2.99673 14.0524 3.06213 14.0043 3.11036C13.9562 3.15858 13.8909 3.18567 13.8229 3.18567Z" fill="#6C6C6C" stroke="#6C6C6C" stroke-width="0.5"/>
<path d="M15.3857 4.85714H14.0552C13.9256 4.85701 13.8013 4.80533 13.7097 4.71344C13.6181 4.62156 13.5665 4.49697 13.5664 4.36703V1.49011C13.5665 1.36017 13.6181 1.23559 13.7097 1.1437C13.8013 1.05182 13.9256 1.00014 14.0552 1H15.3857C15.5153 1.00014 15.6395 1.05182 15.7312 1.1437C15.8228 1.23559 15.8744 1.36017 15.8745 1.49011V4.36703C15.8744 4.49697 15.8228 4.62156 15.7312 4.71344C15.6395 4.80533 15.5153 4.85701 15.3857 4.85714ZM14.0793 4.34286H15.3616V1.51429H14.0793V4.34286Z" fill="#6C6C6C" stroke="#6C6C6C" stroke-width="0.5"/>
<path d="M5.89659 4.85714H4.56608C4.43648 4.85701 4.31223 4.80533 4.22059 4.71344C4.12895 4.62156 4.07741 4.49697 4.07727 4.36703V1.49011C4.07741 1.36017 4.12895 1.23559 4.22059 1.1437C4.31223 1.05182 4.43648 1.00014 4.56608 1H5.89659C6.02619 1.00014 6.15044 1.05182 6.24208 1.1437C6.33372 1.23559 6.38527 1.36017 6.3854 1.49011V4.36703C6.38527 4.49697 6.33372 4.62156 6.24208 4.71344C6.15044 4.80533 6.02619 4.85701 5.89659 4.85714ZM4.59019 4.34286H5.87248V1.51429H4.59019V4.34286Z" fill="#6C6C6C" stroke="#6C6C6C" stroke-width="0.5"/>
<path d="M16.2596 10.5089H14.845C14.709 10.5089 14.5785 10.4547 14.4823 10.3582C14.3861 10.2618 14.3321 10.131 14.3321 9.99457V8.57618C14.3321 8.43978 14.3861 8.30897 14.4823 8.21252C14.5785 8.11607 14.709 8.06189 14.845 8.06189H16.2596C16.3957 8.06189 16.5261 8.11607 16.6223 8.21252C16.7185 8.30897 16.7726 8.43978 16.7726 8.57618V9.99457C16.7726 10.131 16.7185 10.2618 16.6223 10.3582C16.5261 10.4547 16.3957 10.5089 16.2596 10.5089ZM14.845 8.57618V9.99457H16.2596V8.57618H14.845Z" fill="#6C6C6C" stroke="#6C6C6C" stroke-width="0.1"/>
<path d="M12.542 10.5089H11.1273C10.9913 10.5089 10.8608 10.4547 10.7646 10.3582C10.6685 10.2618 10.6144 10.131 10.6144 9.99457V8.57618C10.6144 8.43978 10.6685 8.30897 10.7646 8.21252C10.8608 8.11607 10.9913 8.06189 11.1273 8.06189H12.542C12.678 8.06189 12.8085 8.11607 12.9046 8.21252C13.0008 8.30897 13.0549 8.43978 13.0549 8.57618V9.99457C13.0549 10.131 13.0008 10.2618 12.9046 10.3582C12.8085 10.4547 12.678 10.5089 12.542 10.5089ZM11.1273 8.57618V9.99457H12.542V8.57618H11.1273Z" fill="#6C6C6C" stroke="#6C6C6C" stroke-width="0.1"/>
<path d="M8.82505 10.5089H7.41171C7.27567 10.5089 7.14521 10.4547 7.04902 10.3582C6.95283 10.2618 6.89879 10.131 6.89879 9.99458V8.57618C6.89879 8.43978 6.95283 8.30897 7.04902 8.21252C7.14521 8.11607 7.27567 8.06189 7.41171 8.06189H8.82633C8.96237 8.06189 9.09283 8.11607 9.18902 8.21252C9.28521 8.30897 9.33925 8.43978 9.33925 8.57618V9.99458C9.33925 10.0622 9.32594 10.1292 9.30009 10.1917C9.27423 10.2542 9.23633 10.3109 9.18857 10.3587C9.1408 10.4065 9.08411 10.4443 9.02173 10.4701C8.95935 10.4959 8.89252 10.509 8.82505 10.5089ZM7.41171 8.57618V9.99458H8.82633V8.57618H7.41171Z" fill="#6C6C6C" stroke="#6C6C6C" stroke-width="0.1"/>
<path d="M16.2596 13.9803H14.845C14.709 13.9803 14.5785 13.9261 14.4823 13.8297C14.3861 13.7332 14.3321 13.6024 14.3321 13.466V12.0476C14.3321 11.9112 14.3861 11.7804 14.4823 11.684C14.5785 11.5875 14.709 11.5333 14.845 11.5333H16.2596C16.3957 11.5333 16.5261 11.5875 16.6223 11.684C16.7185 11.7804 16.7726 11.9112 16.7726 12.0476V13.466C16.7726 13.6024 16.7185 13.7332 16.6223 13.8297C16.5261 13.9261 16.3957 13.9803 16.2596 13.9803ZM14.845 12.0476V13.466H16.2596V12.0476H14.845Z" fill="#6C6C6C" stroke="#6C6C6C" stroke-width="0.1"/>
<path d="M12.542 13.9803H11.1273C10.9913 13.9803 10.8608 13.9261 10.7646 13.8297C10.6685 13.7332 10.6144 13.6024 10.6144 13.466V12.0476C10.6144 11.9112 10.6685 11.7804 10.7646 11.684C10.8608 11.5875 10.9913 11.5333 11.1273 11.5333H12.542C12.678 11.5333 12.8085 11.5875 12.9046 11.684C13.0008 11.7804 13.0549 11.9112 13.0549 12.0476V13.466C13.0549 13.6024 13.0008 13.7332 12.9046 13.8297C12.8085 13.9261 12.678 13.9803 12.542 13.9803ZM11.1273 12.0476V13.466H12.542V12.0476H11.1273Z" fill="#6C6C6C" stroke="#6C6C6C" stroke-width="0.1"/>
<path d="M8.82505 13.9803H7.41171C7.27567 13.9803 7.14521 13.9261 7.04902 13.8297C6.95283 13.7332 6.89879 13.6024 6.89879 13.466V12.0476C6.89879 11.9112 6.95283 11.7804 7.04902 11.684C7.14521 11.5875 7.27567 11.5333 7.41171 11.5333H8.82633C8.96237 11.5333 9.09283 11.5875 9.18902 11.684C9.28521 11.7804 9.33925 11.9112 9.33925 12.0476V13.466C9.33925 13.5337 9.32594 13.6006 9.30009 13.6631C9.27423 13.7256 9.23633 13.7823 9.18857 13.8301C9.1408 13.8779 9.08411 13.9157 9.02173 13.9415C8.95935 13.9673 8.89252 13.9805 8.82505 13.9803ZM7.41171 12.0476V13.466H8.82633V12.0476H7.41171Z" fill="#6C6C6C" stroke="#6C6C6C" stroke-width="0.1"/>
<path d="M5.10711 13.9803H3.69248C3.55645 13.9803 3.42599 13.9261 3.3298 13.8297C3.2336 13.7332 3.17957 13.6024 3.17957 13.466V12.0476C3.17957 11.9112 3.2336 11.7804 3.3298 11.684C3.42599 11.5875 3.55645 11.5333 3.69248 11.5333H5.10711C5.24315 11.5333 5.37361 11.5875 5.4698 11.684C5.56599 11.7804 5.62003 11.9112 5.62003 12.0476V13.466C5.62003 13.6024 5.56599 13.7332 5.4698 13.8297C5.37361 13.9261 5.24315 13.9803 5.10711 13.9803ZM3.69248 12.0476V13.466H5.10711V12.0476H3.69248Z" fill="#6C6C6C" stroke="#6C6C6C" stroke-width="0.1"/>
<path d="M12.542 17.4517H11.1273C10.9913 17.4517 10.8608 17.3975 10.7646 17.3011C10.6685 17.2047 10.6144 17.0738 10.6144 16.9374V15.519C10.6144 15.3826 10.6685 15.2518 10.7646 15.1554C10.8608 15.0589 10.9913 15.0048 11.1273 15.0048H12.542C12.678 15.0048 12.8085 15.0589 12.9046 15.1554C13.0008 15.2518 13.0549 15.3826 13.0549 15.519V16.9374C13.0549 17.0738 13.0008 17.2047 12.9046 17.3011C12.8085 17.3975 12.678 17.4517 12.542 17.4517ZM11.1273 15.519V16.9374H12.542V15.519H11.1273Z" fill="#6C6C6C" stroke="#6C6C6C" stroke-width="0.1"/>
<path d="M8.82505 17.4517H7.41171C7.27567 17.4517 7.14521 17.3975 7.04902 17.3011C6.95283 17.2047 6.89879 17.0738 6.89879 16.9374V15.519C6.89879 15.3826 6.95283 15.2518 7.04902 15.1554C7.14521 15.0589 7.27567 15.0048 7.41171 15.0048H8.82633C8.96237 15.0048 9.09283 15.0589 9.18902 15.1554C9.28521 15.2518 9.33925 15.3826 9.33925 15.519V16.9374C9.33925 17.0051 9.32594 17.0721 9.30009 17.1346C9.27423 17.197 9.23633 17.2538 9.18857 17.3016C9.1408 17.3493 9.08411 17.3872 9.02173 17.413C8.95935 17.4387 8.89252 17.4519 8.82505 17.4517ZM7.41171 15.519V16.9374H8.82633V15.519H7.41171Z" fill="#6C6C6C" stroke="#6C6C6C" stroke-width="0.1"/>
<path d="M5.10711 17.4517H3.69248C3.55645 17.4517 3.42599 17.3975 3.3298 17.3011C3.2336 17.2047 3.17957 17.0738 3.17957 16.9374V15.519C3.17957 15.3826 3.2336 15.2518 3.3298 15.1554C3.42599 15.0589 3.55645 15.0048 3.69248 15.0048H5.10711C5.24315 15.0048 5.37361 15.0589 5.4698 15.1554C5.56599 15.2518 5.62003 15.3826 5.62003 15.519V16.9374C5.62003 17.0738 5.56599 17.2047 5.4698 17.3011C5.37361 17.3975 5.24315 17.4517 5.10711 17.4517ZM3.69248 15.519V16.9374H5.10711V15.519H3.69248Z" fill="#6C6C6C" stroke="#6C6C6C" stroke-width="0.1"/>
</svg>
