<svg width="18" height="18" viewBox="0 0 18 18" fill="none" xmlns="http://www.w3.org/2000/svg">
<path d="M4.24233 11.676C5.82643 13.5696 7.73334 15.0606 9.90981 16.1155C10.7385 16.5082 11.8467 16.9741 13.0813 17.054C13.1579 17.0573 13.2311 17.0607 13.3076 17.0607C14.1363 17.0607 14.8019 16.7744 15.3443 16.1854C15.3477 16.1821 15.3543 16.1754 15.3577 16.1688C15.5507 15.9358 15.7703 15.7261 15.9999 15.5032C16.1564 15.3534 16.3161 15.197 16.4692 15.0373C17.178 14.2985 17.178 13.36 16.4625 12.6445L14.4624 10.6444C14.123 10.2916 13.717 10.1053 13.291 10.1053C12.865 10.1053 12.4557 10.2916 12.1063 10.6411L10.9149 11.8325C10.805 11.7692 10.6919 11.7126 10.5854 11.6594C10.4523 11.5928 10.3291 11.5296 10.2193 11.4597C9.1344 10.7708 8.14933 9.8723 7.20752 8.7175C6.73163 8.11514 6.41215 7.60929 6.18917 7.09346C6.502 6.81059 6.79486 6.5144 7.07773 6.22487C7.17757 6.1217 7.28074 6.01854 7.38391 5.91537C7.74332 5.55595 7.93634 5.13996 7.93634 4.71731C7.93634 4.29466 7.74665 3.87867 7.38391 3.51925L6.39218 2.52753C6.2757 2.41105 6.16588 2.2979 6.05273 2.18142C5.83308 1.95512 5.60346 1.72216 5.37716 1.5125C5.03438 1.17638 4.6317 1 4.20572 1C3.78307 1 3.37706 1.17638 3.02097 1.51583L1.77632 2.76048C1.32372 3.21308 1.06747 3.76219 1.01422 4.39783C0.950992 5.19321 1.09742 6.03851 1.47681 7.06018C2.0592 8.64096 2.93777 10.1086 4.24233 11.676ZM1.82624 4.46772C1.86618 4.0251 2.0359 3.6557 2.35538 3.33622L3.59338 2.09822C3.7864 1.91186 3.99939 1.81535 4.20572 1.81535C4.40872 1.81535 4.61506 1.91186 4.80475 2.10488C5.02772 2.31121 5.23738 2.52753 5.46368 2.75715C5.57683 2.87363 5.69331 2.99011 5.80979 3.10992L6.80152 4.10164C7.00785 4.30798 7.11434 4.51764 7.11434 4.72397C7.11434 4.9303 7.00785 5.13996 6.80152 5.34629C6.69835 5.44946 6.59518 5.55595 6.49202 5.65912C6.18252 5.97195 5.89299 6.26813 5.5735 6.55101C5.56685 6.55766 5.56352 6.56099 5.55687 6.56765C5.28065 6.84387 5.32391 7.10678 5.39047 7.30645C5.3938 7.31644 5.39712 7.32309 5.40045 7.33308C5.6567 7.94875 6.01279 8.53446 6.56856 9.23333C7.56694 10.4647 8.61857 11.4198 9.7767 12.1553C9.9198 12.2484 10.0729 12.3217 10.216 12.3949C10.3491 12.4614 10.4722 12.5247 10.5821 12.5946C10.5954 12.6012 10.6054 12.6079 10.6187 12.6145C10.7285 12.6711 10.835 12.6977 10.9415 12.6977C11.2077 12.6977 11.3808 12.528 11.4373 12.4714L12.682 11.2268C12.875 11.0337 13.0847 10.9306 13.291 10.9306C13.5439 10.9306 13.7503 11.087 13.88 11.2268L15.8868 13.2302C16.2862 13.6295 16.2828 14.0622 15.8768 14.4848C15.737 14.6346 15.5906 14.7777 15.4342 14.9274C15.2012 15.1537 14.9583 15.3867 14.7387 15.6496C14.3559 16.0623 13.9 16.2553 13.311 16.2553C13.2544 16.2553 13.1945 16.252 13.1379 16.2486C12.0464 16.1787 11.0313 15.7528 10.2692 15.39C8.19925 14.3883 6.38219 12.9673 4.87464 11.1635C3.63331 9.66929 2.798 8.27821 2.24556 6.78729C1.90278 5.87211 1.77299 5.13663 1.82624 4.46772Z" fill="#6C6C6C" stroke="#6C6C6C" stroke-width="0.4"/>
</svg>
