<svg width="14" height="20" viewBox="0 0 14 20" fill="none" xmlns="http://www.w3.org/2000/svg">
<path d="M9.73661 14.7419C9.69574 14.7419 9.65568 14.7285 9.62104 14.703C9.57126 14.6669 9.53572 14.609 9.52224 14.5421C9.50875 14.4753 9.51843 14.4048 9.54913 14.3463C9.63207 14.1887 9.715 14.0277 9.79881 13.8652L9.8813 13.7053C9.91166 13.6465 9.96065 13.6043 10.0175 13.588C10.0743 13.5717 10.1343 13.5825 10.1844 13.6182C10.2344 13.6539 10.2703 13.7114 10.2842 13.7782C10.2981 13.845 10.2888 13.9156 10.2585 13.9744L10.1762 14.134C10.0915 14.2978 10.0076 14.4594 9.92453 14.6187C9.90476 14.6564 9.87711 14.6875 9.84421 14.709C9.81132 14.7306 9.77427 14.7419 9.73661 14.7419Z" fill="#824B16" stroke="#824B16" stroke-width="0.6"/>
<path d="M7 18.8064C6.96104 18.8066 6.92257 18.7977 6.88762 18.7803C6.85266 18.7629 6.82218 18.7375 6.79857 18.7062C6.5629 18.3926 1 10.977 1 7.06182C1 5.45413 1.63214 3.91228 2.75736 2.77547C3.88258 1.63865 5.4087 1 7 1C8.5913 1 10.1174 1.63865 11.2426 2.77547C12.3679 3.91228 13 5.45413 13 7.06182C13 7.8883 12.7482 8.93532 12.254 10.1739C12.2421 10.2055 12.224 10.2344 12.2009 10.2589C12.1778 10.2834 12.1501 10.303 12.1194 10.3166C12.0887 10.3301 12.0556 10.3373 12.0221 10.3378C11.9886 10.3383 11.9554 10.332 11.9243 10.3193C11.8933 10.3066 11.865 10.2878 11.8412 10.264C11.8175 10.2401 11.7986 10.2117 11.7859 10.1804C11.7731 10.1492 11.7666 10.1156 11.7668 10.0818C11.7671 10.0479 11.774 10.0145 11.7872 9.98335C12.2577 8.80558 12.4964 7.82267 12.4964 7.06182C12.4964 5.58906 11.9173 4.17661 10.8866 3.13521C9.85578 2.09381 8.45774 1.50876 7 1.50876C5.54226 1.50876 4.14422 2.09381 3.11343 3.13521C2.08265 4.17661 1.50357 5.58906 1.50357 7.06182C1.50357 10.4018 5.98984 16.7417 7.00025 18.1273C7.29005 17.7307 7.86513 16.9289 8.53286 15.9162C8.57074 15.8622 8.62796 15.8253 8.69236 15.8132C8.75676 15.8012 8.82328 15.8149 8.8778 15.8516C8.93232 15.8883 8.97054 15.945 8.98436 16.0097C8.99818 16.0743 8.98651 16.1419 8.95183 16.1981C7.98422 17.6658 7.20797 18.6966 7.20017 18.7067C7.17663 18.7378 7.14633 18.7629 7.11162 18.7802C7.0769 18.7975 7.03871 18.8065 7 18.8064Z" fill="#824B16" stroke="#824B16" stroke-width="0.6"/>
<path d="M10.9654 12.6129C10.9181 12.6131 10.8715 12.6028 10.8298 12.5832C10.7624 12.5517 10.712 12.498 10.6898 12.434C10.6676 12.37 10.6753 12.3009 10.7113 12.2419C10.846 12.0212 10.9749 11.8032 11.1041 11.5825C11.1401 11.525 11.2004 11.482 11.2721 11.4628C11.3438 11.4435 11.4213 11.4494 11.488 11.4793C11.5548 11.5092 11.6056 11.5606 11.6298 11.6227C11.6539 11.6849 11.6494 11.7528 11.6173 11.812C11.487 12.0355 11.3563 12.2563 11.22 12.4795C11.1953 12.5199 11.1586 12.5536 11.1138 12.5771C11.0689 12.6006 11.0176 12.613 10.9654 12.6129Z" fill="#824B16" stroke="#824B16" stroke-width="0.6"/>
<path d="M7 11.0644C6.23439 11.0644 5.48598 10.8317 4.8494 10.3957C4.21283 9.95972 3.71667 9.34005 3.42369 8.61504C3.13071 7.89003 3.05405 7.09225 3.20341 6.32258C3.35277 5.55291 3.72145 4.84593 4.26281 4.29103C4.80417 3.73613 5.49392 3.35824 6.24481 3.20515C6.9957 3.05205 7.77403 3.13063 8.48135 3.43093C9.18868 3.73124 9.79324 4.2398 10.2186 4.89229C10.6439 5.54478 10.871 6.3119 10.871 7.09665C10.8698 8.14861 10.4617 9.15715 9.73595 9.901C9.01024 10.6448 8.0263 11.0632 7 11.0644ZM7 3.63854C6.33273 3.63854 5.68045 3.84135 5.12563 4.22134C4.57082 4.60132 4.1384 5.1414 3.88304 5.77329C3.62769 6.40517 3.56088 7.10049 3.69106 7.77129C3.82124 8.4421 4.14256 9.05828 4.61439 9.5419C5.08621 10.0255 5.68736 10.3549 6.34181 10.4883C6.99625 10.6217 7.67461 10.5533 8.29108 10.2915C8.90756 10.0298 9.43447 9.58656 9.80518 9.01787C10.1759 8.44919 10.3738 7.7806 10.3738 7.09665C10.3728 6.17981 10.017 5.30082 9.38452 4.65251C8.75203 4.00421 7.89447 3.63955 7 3.63854Z" fill="#824B16" stroke="#824B16" stroke-width="0.6"/>
</svg>
