<svg width="18" height="18" viewBox="0 0 18 18" fill="none" xmlns="http://www.w3.org/2000/svg">
<path fill-rule="evenodd" clip-rule="evenodd" d="M9 1C13.4181 1 17 4.58187 17 9C17 13.4181 13.4181 17 9 17C4.58187 17 1 13.4181 1 9C1 4.58187 4.58187 1 9 1V1Z" stroke="#824B16" stroke-width="1.2" stroke-linecap="round" stroke-linejoin="round"/>
<path fill-rule="evenodd" clip-rule="evenodd" d="M9.00002 12.7334C9.58935 12.7334 10.0667 13.2107 10.0667 13.8001C10.0667 14.3894 9.58935 14.8667 9.00002 14.8667C8.41068 14.8667 7.93335 14.3894 7.93335 13.8001C7.93335 13.2107 8.41068 12.7334 9.00002 12.7334V12.7334Z" stroke="#824B16" stroke-width="1.2" stroke-linecap="round" stroke-linejoin="round"/>
<path d="M6.54669 5.26675C6.97336 4.30675 7.88003 3.66675 9.00003 3.66675C10.4934 3.66675 11.6667 4.84008 11.6667 6.33341C11.6667 7.82675 10.4934 9.00008 9.00003 9.00008V10.6001" stroke="#824B16" stroke-width="1.2" stroke-linecap="round" stroke-linejoin="round"/>
</svg>
