<svg width="20" height="19" viewBox="0 0 20 19" fill="none" xmlns="http://www.w3.org/2000/svg">
<path d="M18.4285 6.39104H17.1542V1.26378C17.1542 1.11809 17.0361 1 16.8904 1H3.10959C2.9639 1 2.84581 1.11809 2.84581 1.26378V6.39107H1.57154C1.25639 6.39104 1 6.64743 1 6.96257V17.3983C1 17.5672 1.07432 17.7267 1.20542 17.8372C1.30839 17.9227 1.43843 17.9698 1.57154 17.9698H18.4285C18.5624 17.9698 18.6928 17.9224 18.7959 17.8361C18.9256 17.7274 19 17.5679 19 17.3983V6.96257C19 6.64743 18.7436 6.39104 18.4285 6.39104ZM1.52755 17.2174V10.1875L6.88505 13.7024L1.52755 17.2174ZM2.14669 17.4422L9.77001 12.4407C9.91689 12.3444 10.1063 12.3445 10.2528 12.4411L17.8552 17.4422H2.14669ZM18.4724 17.2169L13.1302 13.7025L18.4724 10.1879V17.2169ZM18.4724 9.55636L12.6502 13.3867L10.543 12.0005C10.2209 11.7881 9.80397 11.7877 9.48074 11.9994L7.36595 13.3869L1.52755 9.55647V6.96257C1.52755 6.93835 1.54728 6.91862 1.5715 6.91862H2.84577V9.74287C2.84577 9.88855 2.96386 10.0066 3.10955 10.0066C3.25524 10.0066 3.37333 9.88855 3.37333 9.74287V1.52755H16.6266V9.74287C16.6266 9.88855 16.7447 10.0066 16.8904 10.0066C17.0361 10.0066 17.1542 9.88855 17.1542 9.74287V6.91862H18.4284C18.4527 6.91862 18.4724 6.93835 18.4724 6.96257V9.55636H18.4724Z" fill="#824B16" stroke="#824B16" stroke-width="0.4"/>
<path d="M13.0835 6.11393C13.2177 5.98315 13.265 5.79121 13.2072 5.61303C13.1493 5.43484 12.9981 5.30742 12.8127 5.28049L11.1915 5.04491C11.1597 5.04029 11.1321 5.0203 11.1179 4.99145L10.3929 3.52238C10.31 3.35437 10.1421 3.25 9.95471 3.25C9.76735 3.25 9.59945 3.35437 9.51654 3.52238L8.79151 4.99146C8.77726 5.0203 8.74976 5.04029 8.71792 5.04492L7.09672 5.28049C6.91131 5.30742 6.76018 5.43484 6.70227 5.61303C6.64435 5.79121 6.69173 5.98315 6.82591 6.11393L7.99904 7.25744C8.02206 7.2799 8.03258 7.31225 8.02714 7.34395L7.7502 8.95862C7.71854 9.14329 7.79301 9.3264 7.94458 9.43652C8.09616 9.54668 8.29337 9.5609 8.45919 9.47374L9.90924 8.7114C9.93772 8.69642 9.97171 8.69642 10.0002 8.7114L11.4503 9.47374C11.5224 9.51166 11.6004 9.5304 11.6781 9.53038C11.779 9.53038 11.8792 9.49878 11.9648 9.43651C12.1164 9.32637 12.1909 9.14324 12.1592 8.9586L11.8823 7.34394C11.8768 7.31223 11.8874 7.27989 11.9104 7.25743L13.0835 6.11393ZM11.497 7.41004L11.774 9.02474C11.7832 9.07877 11.7499 9.10958 11.7351 9.12031C11.7203 9.13102 11.6807 9.15326 11.6322 9.12773L10.1821 8.36539C10.1109 8.32798 10.0328 8.30926 9.95474 8.30926C9.87664 8.30926 9.79853 8.32798 9.72736 8.36538L8.27731 9.1277C8.22877 9.15322 8.18917 9.131 8.17439 9.12028C8.15961 9.10956 8.12624 9.07875 8.13552 9.02471L8.41246 7.41004C8.43965 7.25151 8.38713 7.08984 8.27193 6.97755L7.0988 5.83403C7.05954 5.79574 7.06843 5.75121 7.07408 5.73385C7.07971 5.71647 7.09871 5.67521 7.15297 5.66734L8.77416 5.43176C8.93333 5.40863 9.07088 5.30872 9.14208 5.16445L9.86711 3.69537C9.89138 3.64621 9.93648 3.6409 9.95475 3.6409C9.973 3.6409 10.0181 3.6462 10.0424 3.69537V3.69539L10.7674 5.16447C10.8386 5.30873 10.9761 5.40865 11.1353 5.43177L12.7565 5.66735C12.8108 5.67522 12.8298 5.71648 12.8354 5.73386C12.8411 5.75124 12.85 5.79579 12.8107 5.83405L11.6375 6.97757C11.5224 7.08984 11.4698 7.25151 11.497 7.41004Z" fill="#824B16" stroke="#824B16" stroke-width="0.3"/>
<path d="M12.238 3.5222C12.1507 3.45876 12.0285 3.47812 11.965 3.56544L11.7576 3.85099C11.6941 3.93831 11.7135 4.06055 11.8008 4.12399C11.8355 4.14919 11.8757 4.16133 11.9155 4.16133C11.976 4.16133 12.0356 4.13339 12.0738 4.08077L12.2813 3.79522C12.3447 3.70788 12.3254 3.58564 12.238 3.5222Z" fill="#824B16" stroke="#824B16" stroke-width="0.3"/>
<path d="M8.15102 3.84999L7.94355 3.56444C7.88012 3.47715 7.75789 3.45779 7.67054 3.5212C7.58322 3.58465 7.56386 3.70689 7.6273 3.79421L7.83478 4.07976C7.87303 4.13242 7.93262 4.16035 7.99308 4.16035C8.03292 4.16035 8.07312 4.14821 8.1078 4.123C8.19512 4.05957 8.21448 3.93733 8.15102 3.84999Z" fill="#824B16" stroke="#824B16" stroke-width="0.3"/>
<path d="M6.96709 7.6351C6.93373 7.53245 6.82347 7.47626 6.7208 7.50962L6.3851 7.6187C6.28243 7.65206 6.22626 7.76235 6.25962 7.86499C6.28645 7.94761 6.36308 8.00011 6.44546 8.00011C6.46548 8.00011 6.48584 7.997 6.50591 7.99047L6.8416 7.88139C6.94426 7.84803 7.00044 7.73777 6.96709 7.6351Z" fill="#824B16" stroke="#824B16" stroke-width="0.3"/>
<path d="M9.95479 9.80518C9.84685 9.80518 9.75934 9.89268 9.75934 10.0006V10.3536C9.75934 10.4616 9.84685 10.5491 9.95479 10.5491C10.0627 10.5491 10.1502 10.4616 10.1502 10.3536V10.0006C10.1502 9.89267 10.0627 9.80518 9.95479 9.80518Z" fill="#824B16" stroke="#824B16" stroke-width="0.3"/>
<path d="M13.5242 7.61894L13.1885 7.50985C13.0859 7.47652 12.9756 7.53267 12.9422 7.63535C12.9089 7.73802 12.965 7.84828 13.0677 7.88164L13.4034 7.99072C13.4235 7.99724 13.4438 8.00033 13.4638 8.00033C13.5462 8.00033 13.6229 7.94782 13.6497 7.86521C13.6831 7.76255 13.6269 7.65229 13.5242 7.61894Z" fill="#824B16" stroke="#824B16" stroke-width="0.3"/>
</svg>
