<svg width="20" height="20" viewBox="0 0 20 20" fill="none" xmlns="http://www.w3.org/2000/svg">
<path d="M5.12495 5.90902H13.375C13.5822 5.90902 13.75 5.72604 13.75 5.49992C13.75 5.2738 13.5822 5.09082 13.375 5.09082H5.12495C4.91767 5.09082 4.74994 5.2738 4.74994 5.49992C4.74997 5.72608 4.9177 5.90902 5.12495 5.90902Z" fill="#824B16" stroke="#824B16" stroke-width="0.4"/>
<path d="M9.62496 10H5.12495C4.91767 10 4.74994 10.183 4.74994 10.4091C4.74994 10.6352 4.91767 10.8182 5.12495 10.8182H9.62496C9.83224 10.8182 9.99997 10.6352 9.99997 10.4091C9.99997 10.183 9.83224 10 9.62496 10Z" fill="#824B16" stroke="#824B16" stroke-width="0.4"/>
<path d="M17.5645 2.63637C17.5427 2.63637 17.5217 2.64232 17.5 2.64343V2.63637C17.5 1.73391 16.8269 1 16 1H2.50001C1.6731 1 1 1.73391 1 2.63637V18.5909C1 18.7563 1.09155 18.9057 1.23143 18.9688C1.27759 18.99 1.32664 19 1.37498 19C1.47239 19 1.56834 18.9585 1.64013 18.8801L5.28027 14.9091H16C16.8269 14.9091 17.5 14.1752 17.5 13.2727V6.48736L18.5796 5.30983C18.5796 5.30983 18.5796 5.30983 18.5796 5.30945C18.8469 5.01782 19 4.61431 19 4.20241C19 3.33872 18.3562 2.63637 17.5645 2.63637ZM16.75 13.2727C16.75 13.7237 16.4138 14.0909 16 14.0909H5.12499C5.02539 14.0909 4.93015 14.134 4.85984 14.2107L1.74999 17.6033V2.63637C1.74999 2.18535 2.08619 1.81821 2.49998 1.81821H16C16.4138 1.81821 16.75 2.18535 16.75 2.63637V2.91581C16.6788 2.96919 16.6107 3.02791 16.5493 3.09499L12.4691 7.54546H5.12499C4.91771 7.54546 4.74998 7.72844 4.74998 7.95456C4.74998 8.18069 4.91771 8.36367 5.12499 8.36367H11.8674L11.5073 10.3288C11.4824 10.4631 11.5212 10.6017 11.6099 10.6984C11.6809 10.7759 11.7769 10.8182 11.875 10.8182C11.8992 10.8182 11.9241 10.8154 11.9483 10.8102L13.8225 10.4011C13.8958 10.3851 13.9624 10.3464 14.0144 10.2893L16.75 7.30545V13.2727ZM13.5647 9.62327L12.3533 9.88774L12.5957 8.56459L15.9998 4.85102L16.9697 5.90905L13.5647 9.62327ZM18.0493 4.73136L17.5 5.33062L16.5301 4.27252L17.0796 3.67307C17.207 3.53443 17.3835 3.45454 17.5644 3.45454C17.9424 3.45454 18.25 3.79012 18.25 4.20241C18.25 4.39897 18.1767 4.59195 18.0493 4.73136Z" fill="#824B16" stroke="#824B16" stroke-width="0.4"/>
</svg>
