<svg width="22" height="21" viewBox="0 0 22 21" fill="none" xmlns="http://www.w3.org/2000/svg">
<path d="M3.72723 11C3.72723 11.638 4.22776 12.1571 4.84292 12.1571C5.45815 12.1571 5.95864 11.638 5.95864 11C5.95864 10.362 5.45811 9.84302 4.84292 9.84302C4.22776 9.84302 3.72723 10.362 3.72723 11ZM5.38704 11C5.38704 11.3111 5.14295 11.5643 4.84296 11.5643C4.54296 11.5643 4.29891 11.3111 4.29891 11C4.29891 10.6889 4.54296 10.4358 4.84296 10.4358C5.14295 10.4358 5.38704 10.6889 5.38704 11Z" fill="#824B16"/>
<path d="M8.76864 11C8.76864 10.362 8.24958 9.84302 7.61159 9.84302C6.97361 9.84302 6.45459 10.362 6.45459 11C6.45459 11.638 6.97365 12.1571 7.61159 12.1571C8.24958 12.1571 8.76864 11.638 8.76864 11ZM7.04736 11C7.04736 10.6889 7.30045 10.4358 7.61156 10.4358C7.92266 10.4358 8.17579 10.6889 8.17579 11C8.17579 11.3111 7.92266 11.5643 7.61156 11.5643C7.30045 11.5643 7.04736 11.3111 7.04736 11Z" fill="#824B16"/>
<path d="M11.4959 11C11.4959 10.362 10.9768 9.84302 10.3388 9.84302C9.70085 9.84302 9.18182 10.362 9.18182 11C9.18182 11.638 9.70089 12.1571 10.3388 12.1571C10.9768 12.1571 11.4959 11.638 11.4959 11ZM9.77459 11C9.77459 10.6889 10.0277 10.4358 10.3388 10.4358C10.6499 10.4358 10.903 10.6889 10.903 11C10.903 11.3111 10.6499 11.5643 10.3388 11.5643C10.0277 11.5643 9.77459 11.3111 9.77459 11Z" fill="#824B16"/>
<path d="M14.2231 11C14.2231 10.362 13.704 9.84302 13.0661 9.84302C12.4281 9.84302 11.9091 10.362 11.9091 11C11.9091 11.638 12.4281 12.1571 13.0661 12.1571C13.704 12.1571 14.2231 11.638 14.2231 11ZM12.5018 11C12.5018 10.6889 12.7549 10.4358 13.066 10.4358C13.3771 10.4358 13.6303 10.6889 13.6303 11C13.6303 11.3111 13.3771 11.5643 13.066 11.5643C12.7549 11.5643 12.5018 11.3111 12.5018 11Z" fill="#824B16"/>
<path d="M10.3837 17.4174L10.3837 17.4173C10.3887 17.3961 10.3719 17.3709 10.3441 17.3709H8.27758C8.06064 17.3709 7.88461 17.1953 7.88461 16.9784C7.88461 16.7615 8.06064 16.5858 8.27758 16.5858H10.3441C10.876 16.5858 11.2703 17.0805 11.1488 17.597C10.9568 18.4131 10.6694 19.214 10.2946 19.9777C10.2946 19.9777 10.2946 19.9777 10.2946 19.9777L10.3837 17.4174ZM10.3837 17.4174C10.2053 18.1759 9.93791 18.9211 9.5889 19.6321L9.5889 19.6321M10.3837 17.4174L9.5889 19.6321M9.5889 19.6321C9.2409 20.3414 10.0376 21.0631 10.7091 20.6482C11.6981 20.0369 13.1323 18.9982 14.342 17.522C14.4203 17.4264 14.5379 17.3709 14.6659 17.3709C16.296 17.3709 17.6223 16.0467 17.6223 14.4186V14.0572H18.1435C19.7737 14.0572 21.1 12.733 21.1 11.1049V8.16122C21.1 7.9443 20.924 7.76867 20.707 7.76867C20.4901 7.76867 20.3141 7.9443 20.3141 8.16122V11.1049C20.3141 12.2997 19.3404 13.2721 18.1435 13.2721H17.6223V7.16603C17.6223 5.53792 16.296 4.21375 14.6659 4.21375H5.16359V3.85232C5.16359 2.65756 6.13724 1.68512 7.33414 1.68512H18.1435C19.3404 1.68512 20.3141 2.65756 20.3141 3.85232V6.79602C20.3141 7.01294 20.4901 7.18856 20.707 7.18856C20.924 7.18856 21.1 7.01294 21.1 6.79602V3.85232C21.1 2.22417 19.7737 0.9 18.1435 0.9H7.33414M9.5889 19.6321L7.33414 0.9M7.33414 0.9C5.70401 0.9 4.37766 2.22417 4.37766 3.85228M7.33414 0.9L4.37766 3.85228M4.37766 3.85228V4.21371M4.37766 3.85228V4.21371M4.37766 4.21371H3.85645C2.22632 4.21375 0.9 5.53792 0.9 7.16603V14.4186C0.9 16.0468 2.22632 17.3709 3.85645 17.3709H6.91035C7.12729 17.3709 7.30332 17.1953 7.30332 16.9784C7.30332 16.7615 7.12729 16.5858 6.91035 16.5858H3.85645C2.65958 16.5858 1.68594 15.6134 1.68594 14.4186V7.16603C1.68594 5.97127 2.65958 4.99883 3.85645 4.99883H14.6659C15.8627 4.99883 16.8364 5.97127 16.8364 7.16603V14.4186C16.8364 15.6134 15.8627 16.5858 14.6659 16.5858C14.3025 16.5858 13.9625 16.7456 13.7338 17.0247C12.5942 18.4154 11.2357 19.3995 10.2957 19.9804L4.37766 4.21371ZM10.2956 19.9805L10.2935 19.9816C10.2934 19.9815 10.2933 19.9814 10.2932 19.9814L10.2956 19.9805Z" fill="#824B16" stroke="#824B16" stroke-width="0.2"/>
</svg>
