<svg width="17" height="17" viewBox="0 0 17 17" fill="none" xmlns="http://www.w3.org/2000/svg">
<path d="M14.8086 1.32812H13.2812V0.53125C13.2812 0.237867 13.0434 0 12.75 0C12.4566 0 12.2188 0.237867 12.2188 0.53125V1.32812H4.78125V0.53125C4.78125 0.237867 4.54342 0 4.25 0C3.95658 0 3.71875 0.237867 3.71875 0.53125V1.32812H2.19141C0.983045 1.32812 0 2.31117 0 3.51953V14.8086C0 16.017 0.983045 17 2.19141 17H14.8086C16.017 17 17 16.017 17 14.8086V3.51953C17 2.31117 16.017 1.32812 14.8086 1.32812ZM2.19141 2.39062H3.71875V2.92188C3.71875 3.21526 3.95658 3.45312 4.25 3.45312C4.54342 3.45312 4.78125 3.21526 4.78125 2.92188V2.39062H12.2188V2.92188C12.2188 3.21526 12.4566 3.45312 12.75 3.45312C13.0434 3.45312 13.2812 3.21526 13.2812 2.92188V2.39062H14.8086C15.4311 2.39062 15.9375 2.89704 15.9375 3.51953V4.78125H1.0625V3.51953C1.0625 2.89704 1.56891 2.39062 2.19141 2.39062ZM14.8086 15.9375H2.19141C1.56891 15.9375 1.0625 15.4311 1.0625 14.8086V5.84375H15.9375V14.8086C15.9375 15.4311 15.4311 15.9375 14.8086 15.9375Z" fill="#824B16"/>
<path d="M11.0714 7.99501L8.21741 10.8695L6.90936 9.552C6.71236 9.35359 6.3929 9.35355 6.19587 9.55196C5.99884 9.75041 5.99884 10.0721 6.19587 10.2706L7.86065 11.9473C7.95526 12.0426 8.08358 12.0962 8.21738 12.0962C8.21741 12.0962 8.21738 12.0962 8.21741 12.0962C8.35121 12.0962 8.47953 12.0426 8.57414 11.9474L11.7849 8.71364C11.982 8.5152 11.982 8.19348 11.7849 7.99504C11.5879 7.7966 11.2685 7.79656 11.0714 7.99501Z" fill="#824B16"/>
</svg>
