<svg width="14" height="14" viewBox="0 0 14 14" fill="none" xmlns="http://www.w3.org/2000/svg">
<path fill-rule="evenodd" clip-rule="evenodd" d="M0.583334 7C0.583334 10.5438 3.45617 13.4167 7 13.4167C10.5438 13.4167 13.4167 10.5438 13.4167 7C13.4167 3.45617 10.5438 0.583333 7 0.583333C3.45617 0.583333 0.583334 3.45617 0.583334 7ZM0 7C0 10.866 3.13401 14 7 14C10.866 14 14 10.866 14 7C14 3.13401 10.866 0 7 0C3.13401 0 0 3.13401 0 7Z" fill="#2C2C2C"/>
<path fill-rule="evenodd" clip-rule="evenodd" d="M9.05934 5.84812C9.18027 5.95454 9.19203 6.13883 9.08561 6.25976L7.03228 8.5931C6.97362 8.65976 6.88778 8.69606 6.79909 8.69173C6.7104 8.6874 6.62851 8.6429 6.57662 8.57083L4.89662 6.2375C4.8025 6.10678 4.83218 5.9245 4.9629 5.83038C5.09362 5.73626 5.2759 5.76593 5.37002 5.89666L6.83616 7.93296L8.6477 5.8744C8.75411 5.75347 8.93841 5.7417 9.05934 5.84812Z" fill="#2C2C2C"/>
</svg>
