<svg width="157" height="44" viewBox="0 0 157 44" fill="none" xmlns="http://www.w3.org/2000/svg">
<rect width="157" height="44" rx="6" fill="#EEF2FF"/>
<path d="M32.3049 12H17.6951C16.2066 12 15 13.2066 15 14.695V29.3049C15 30.7933 16.2066 31.9999 17.6951 31.9999H24.9006L24.9128 24.853H23.0561C22.8148 24.853 22.6189 24.6579 22.618 24.4166L22.6091 22.1129C22.6082 21.8703 22.8046 21.6731 23.0472 21.6731H24.9006V19.4471C24.9006 16.8638 26.4783 15.4572 28.7827 15.4572H30.6737C30.9157 15.4572 31.1118 15.6534 31.1118 15.8954V17.8379C31.1118 18.0798 30.9158 18.2759 30.674 18.276L29.5135 18.2766C28.2603 18.2766 28.0176 18.8721 28.0176 19.746V21.6731H30.7714C31.0338 21.6731 31.2373 21.9022 31.2064 22.1628L30.9334 24.4666C30.9072 24.687 30.7203 24.8531 30.4983 24.8531H28.0299L28.0176 32H32.305C33.7934 32 35 30.7934 35 29.305V14.695C35 13.2066 33.7934 12 32.3049 12Z" fill="#475993"/>
<path d="M40.1623 27H41.2543V23.232H44.2063V22.344H41.2543V19.524H44.8903V18.636H40.1623V27ZM45.8012 23.688C45.8012 25.728 47.1572 27.108 48.9092 27.108C50.1212 27.108 50.9732 26.484 51.3692 25.776V27H52.4732V20.424H51.3692V21.624C50.9852 20.94 50.1452 20.316 48.9212 20.316C47.1572 20.316 45.8012 21.636 45.8012 23.688ZM51.3692 23.7C51.3692 25.248 50.3372 26.148 49.1372 26.148C47.9372 26.148 46.9172 25.236 46.9172 23.688C46.9172 22.14 47.9372 21.264 49.1372 21.264C50.3372 21.264 51.3692 22.176 51.3692 23.7ZM53.9105 23.7C53.9105 25.788 55.2425 27.108 57.1145 27.108C58.7465 27.108 59.8145 26.196 60.1505 24.888H58.9745C58.7345 25.716 58.0865 26.184 57.1145 26.184C55.9145 26.184 55.0265 25.332 55.0265 23.7C55.0265 22.092 55.9145 21.24 57.1145 21.24C58.0865 21.24 58.7465 21.744 58.9745 22.536H60.1505C59.8145 21.156 58.7465 20.316 57.1145 20.316C55.2425 20.316 53.9105 21.636 53.9105 23.7ZM64.4036 21.24C65.5316 21.24 66.4916 21.948 66.4796 23.232H62.3276C62.4476 21.948 63.3356 21.24 64.4036 21.24ZM67.4756 24.972H66.2996C66.0596 25.68 65.4356 26.184 64.4516 26.184C63.3356 26.184 62.3996 25.452 62.3156 24.12H67.5716C67.5956 23.892 67.6076 23.7 67.6076 23.46C67.6076 21.66 66.3596 20.316 64.4516 20.316C62.5316 20.316 61.1996 21.624 61.1996 23.7C61.1996 25.788 62.5796 27.108 64.4516 27.108C66.0836 27.108 67.1396 26.172 67.4756 24.972ZM70.141 21.648V18.12H69.049V27H70.141V25.788C70.549 26.508 71.401 27.108 72.601 27.108C74.365 27.108 75.721 25.728 75.721 23.688C75.721 21.636 74.377 20.316 72.601 20.316C71.437 20.316 70.561 20.916 70.141 21.648ZM74.605 23.688C74.605 25.236 73.585 26.148 72.373 26.148C71.185 26.148 70.141 25.248 70.141 23.7C70.141 22.176 71.185 21.264 72.373 21.264C73.585 21.264 74.605 22.14 74.605 23.688ZM83.3984 23.7C83.3984 21.624 81.9464 20.316 80.0744 20.316C78.2144 20.316 76.7504 21.624 76.7504 23.7C76.7504 25.788 78.1664 27.108 80.0264 27.108C81.8984 27.108 83.3984 25.788 83.3984 23.7ZM77.8664 23.7C77.8664 22.044 78.9104 21.264 80.0624 21.264C81.1904 21.264 82.2824 22.044 82.2824 23.7C82.2824 25.368 81.1664 26.148 80.0264 26.148C78.8864 26.148 77.8664 25.368 77.8664 23.7ZM91.0742 23.7C91.0742 21.624 89.6222 20.316 87.7502 20.316C85.8902 20.316 84.4262 21.624 84.4262 23.7C84.4262 25.788 85.8422 27.108 87.7022 27.108C89.5742 27.108 91.0742 25.788 91.0742 23.7ZM85.5422 23.7C85.5422 22.044 86.5862 21.264 87.7382 21.264C88.8662 21.264 89.9582 22.044 89.9582 23.7C89.9582 25.368 88.8422 26.148 87.7022 26.148C86.5622 26.148 85.5422 25.368 85.5422 23.7ZM92.5099 27H93.6019V24.096L96.1819 27H97.6699L94.5619 23.7L97.6579 20.424H96.1339L93.6019 23.34V18.12H92.5099V27Z" fill="#475993"/>
</svg>
