<svg width="157" height="44" viewBox="0 0 157 44" fill="none" xmlns="http://www.w3.org/2000/svg">
<rect width="157" height="44" rx="6" fill="#EEF2FF"/>
<path d="M32.3049 12H17.6951C16.2066 12 15 13.2066 15 14.695V29.3049C15 30.7933 16.2066 31.9999 17.6951 31.9999H24.9006L24.9128 24.853H23.0561C22.8148 24.853 22.6189 24.6579 22.618 24.4166L22.6091 22.1129C22.6082 21.8703 22.8046 21.6731 23.0472 21.6731H24.9006V19.4471C24.9006 16.8638 26.4783 15.4572 28.7827 15.4572H30.6737C30.9157 15.4572 31.1118 15.6534 31.1118 15.8954V17.8379C31.1118 18.0798 30.9158 18.2759 30.674 18.276L29.5135 18.2766C28.2603 18.2766 28.0176 18.8721 28.0176 19.746V21.6731H30.7714C31.0338 21.6731 31.2373 21.9022 31.2064 22.1628L30.9334 24.4666C30.9072 24.687 30.7203 24.8531 30.4983 24.8531H28.0299L28.0176 32H32.305C33.7934 32 35 30.7934 35 29.305V14.695C35 13.2066 33.7934 12 32.3049 12Z" fill="#475993"/>
<path d="M43.28 13.03V18.18C43.28 18.7533 43.1033 19.2133 42.75 19.56C42.3967 19.9 41.93 20.07 41.35 20.07C40.7633 20.07 40.2933 19.8967 39.94 19.55C39.5867 19.1967 39.41 18.7167 39.41 18.11H40.32C40.3267 18.45 40.4133 18.7267 40.58 18.94C40.7533 19.1533 41.01 19.26 41.35 19.26C41.69 19.26 41.9433 19.16 42.11 18.96C42.2767 18.7533 42.36 18.4933 42.36 18.18V13.03H43.28ZM47.4627 20.09C46.9494 20.09 46.4827 19.9733 46.0627 19.74C45.6494 19.5067 45.3227 19.1767 45.0827 18.75C44.8494 18.3167 44.7327 17.8167 44.7327 17.25C44.7327 16.69 44.8527 16.1967 45.0927 15.77C45.3394 15.3367 45.6727 15.0067 46.0927 14.78C46.5127 14.5467 46.9827 14.43 47.5027 14.43C48.0227 14.43 48.4927 14.5467 48.9127 14.78C49.3327 15.0067 49.6627 15.3333 49.9027 15.76C50.1494 16.1867 50.2727 16.6833 50.2727 17.25C50.2727 17.8167 50.1461 18.3167 49.8927 18.75C49.6461 19.1767 49.3094 19.5067 48.8827 19.74C48.4561 19.9733 47.9827 20.09 47.4627 20.09ZM47.4627 19.29C47.7894 19.29 48.0961 19.2133 48.3827 19.06C48.6694 18.9067 48.8994 18.6767 49.0727 18.37C49.2527 18.0633 49.3427 17.69 49.3427 17.25C49.3427 16.81 49.2561 16.4367 49.0827 16.13C48.9094 15.8233 48.6827 15.5967 48.4027 15.45C48.1227 15.2967 47.8194 15.22 47.4927 15.22C47.1594 15.22 46.8527 15.2967 46.5727 15.45C46.2994 15.5967 46.0794 15.8233 45.9127 16.13C45.7461 16.4367 45.6627 16.81 45.6627 17.25C45.6627 17.6967 45.7427 18.0733 45.9027 18.38C46.0694 18.6867 46.2894 18.9167 46.5627 19.07C46.8361 19.2167 47.1361 19.29 47.4627 19.29ZM51.9392 13.63C51.7659 13.63 51.6192 13.57 51.4992 13.45C51.3792 13.33 51.3192 13.1833 51.3192 13.01C51.3192 12.8367 51.3792 12.69 51.4992 12.57C51.6192 12.45 51.7659 12.39 51.9392 12.39C52.1059 12.39 52.2459 12.45 52.3592 12.57C52.4792 12.69 52.5392 12.8367 52.5392 13.01C52.5392 13.1833 52.4792 13.33 52.3592 13.45C52.2459 13.57 52.1059 13.63 51.9392 13.63ZM52.3792 14.52V20H51.4692V14.52H52.3792ZM56.6002 14.42C57.2668 14.42 57.8068 14.6233 58.2202 15.03C58.6335 15.43 58.8402 16.01 58.8402 16.77V20H57.9402V16.9C57.9402 16.3533 57.8035 15.9367 57.5302 15.65C57.2568 15.3567 56.8835 15.21 56.4102 15.21C55.9302 15.21 55.5468 15.36 55.2602 15.66C54.9802 15.96 54.8402 16.3967 54.8402 16.97V20H53.9302V14.52H54.8402V15.3C55.0202 15.02 55.2635 14.8033 55.5702 14.65C55.8835 14.4967 56.2268 14.42 56.6002 14.42ZM66.1527 20.07C65.506 20.07 64.916 19.92 64.3827 19.62C63.8493 19.3133 63.426 18.89 63.1127 18.35C62.806 17.8033 62.6527 17.19 62.6527 16.51C62.6527 15.83 62.806 15.22 63.1127 14.68C63.426 14.1333 63.8493 13.71 64.3827 13.41C64.916 13.1033 65.506 12.95 66.1527 12.95C66.806 12.95 67.3993 13.1033 67.9327 13.41C68.466 13.71 68.886 14.13 69.1927 14.67C69.4993 15.21 69.6527 15.8233 69.6527 16.51C69.6527 17.1967 69.4993 17.81 69.1927 18.35C68.886 18.89 68.466 19.3133 67.9327 19.62C67.3993 19.92 66.806 20.07 66.1527 20.07ZM66.1527 19.28C66.6393 19.28 67.076 19.1667 67.4627 18.94C67.856 18.7133 68.1627 18.39 68.3827 17.97C68.6093 17.55 68.7227 17.0633 68.7227 16.51C68.7227 15.95 68.6093 15.4633 68.3827 15.05C68.1627 14.63 67.8593 14.3067 67.4727 14.08C67.086 13.8533 66.646 13.74 66.1527 13.74C65.6593 13.74 65.2193 13.8533 64.8327 14.08C64.446 14.3067 64.1393 14.63 63.9127 15.05C63.6927 15.4633 63.5827 15.95 63.5827 16.51C63.5827 17.0633 63.6927 17.55 63.9127 17.97C64.1393 18.39 64.446 18.7133 64.8327 18.94C65.226 19.1667 65.666 19.28 66.1527 19.28ZM75.714 14.52V20H74.804V19.19C74.6307 19.47 74.3873 19.69 74.074 19.85C73.7673 20.0033 73.4273 20.08 73.054 20.08C72.6273 20.08 72.244 19.9933 71.904 19.82C71.564 19.64 71.294 19.3733 71.094 19.02C70.9007 18.6667 70.804 18.2367 70.804 17.73V14.52H71.704V17.61C71.704 18.15 71.8407 18.5667 72.114 18.86C72.3873 19.1467 72.7607 19.29 73.234 19.29C73.7207 19.29 74.104 19.14 74.384 18.84C74.664 18.54 74.804 18.1033 74.804 17.53V14.52H75.714ZM78.1605 15.41C78.3205 15.0967 78.5471 14.8533 78.8405 14.68C79.1405 14.5067 79.5038 14.42 79.9305 14.42V15.36H79.6905C78.6705 15.36 78.1605 15.9133 78.1605 17.02V20H77.2505V14.52H78.1605V15.41ZM43.71 25.03V25.77H40.68V28.12H43.14V28.86H40.68V32H39.77V25.03H43.71ZM44.4691 29.24C44.4691 28.68 44.5824 28.19 44.8091 27.77C45.0357 27.3433 45.3457 27.0133 45.7391 26.78C46.1391 26.5467 46.5824 26.43 47.0691 26.43C47.5491 26.43 47.9657 26.5333 48.3191 26.74C48.6724 26.9467 48.9357 27.2067 49.1091 27.52V26.52H50.0291V32H49.1091V30.98C48.9291 31.3 48.6591 31.5667 48.2991 31.78C47.9457 31.9867 47.5324 32.09 47.0591 32.09C46.5724 32.09 46.1324 31.97 45.7391 31.73C45.3457 31.49 45.0357 31.1533 44.8091 30.72C44.5824 30.2867 44.4691 29.7933 44.4691 29.24ZM49.1091 29.25C49.1091 28.8367 49.0257 28.4767 48.8591 28.17C48.6924 27.8633 48.4657 27.63 48.1791 27.47C47.8991 27.3033 47.5891 27.22 47.2491 27.22C46.9091 27.22 46.5991 27.3 46.3191 27.46C46.0391 27.62 45.8157 27.8533 45.6491 28.16C45.4824 28.4667 45.3991 28.8267 45.3991 29.24C45.3991 29.66 45.4824 30.0267 45.6491 30.34C45.8157 30.6467 46.0391 30.8833 46.3191 31.05C46.5991 31.21 46.9091 31.29 47.2491 31.29C47.5891 31.29 47.8991 31.21 48.1791 31.05C48.4657 30.8833 48.6924 30.6467 48.8591 30.34C49.0257 30.0267 49.1091 29.6633 49.1091 29.25ZM51.2269 29.25C51.2269 28.6833 51.3402 28.19 51.5669 27.77C51.7935 27.3433 52.1069 27.0133 52.5069 26.78C52.9135 26.5467 53.3769 26.43 53.8969 26.43C54.5702 26.43 55.1235 26.5933 55.5569 26.92C55.9969 27.2467 56.2869 27.7 56.4269 28.28H55.4469C55.3535 27.9467 55.1702 27.6833 54.8969 27.49C54.6302 27.2967 54.2969 27.2 53.8969 27.2C53.3769 27.2 52.9569 27.38 52.6369 27.74C52.3169 28.0933 52.1569 28.5967 52.1569 29.25C52.1569 29.91 52.3169 30.42 52.6369 30.78C52.9569 31.14 53.3769 31.32 53.8969 31.32C54.2969 31.32 54.6302 31.2267 54.8969 31.04C55.1635 30.8533 55.3469 30.5867 55.4469 30.24H56.4269C56.2802 30.8 55.9869 31.25 55.5469 31.59C55.1069 31.9233 54.5569 32.09 53.8969 32.09C53.3769 32.09 52.9135 31.9733 52.5069 31.74C52.1069 31.5067 51.7935 31.1767 51.5669 30.75C51.3402 30.3233 51.2269 29.8233 51.2269 29.25ZM62.6411 29.05C62.6411 29.2233 62.6311 29.4067 62.6111 29.6H58.2311C58.2644 30.14 58.4478 30.5633 58.7811 30.87C59.1211 31.17 59.5311 31.32 60.0111 31.32C60.4044 31.32 60.7311 31.23 60.9911 31.05C61.2578 30.8633 61.4444 30.6167 61.5511 30.31H62.5311C62.3844 30.8367 62.0911 31.2667 61.6511 31.6C61.2111 31.9267 60.6644 32.09 60.0111 32.09C59.4911 32.09 59.0244 31.9733 58.6111 31.74C58.2044 31.5067 57.8844 31.1767 57.6511 30.75C57.4178 30.3167 57.3011 29.8167 57.3011 29.25C57.3011 28.6833 57.4144 28.1867 57.6411 27.76C57.8678 27.3333 58.1844 27.0067 58.5911 26.78C59.0044 26.5467 59.4778 26.43 60.0111 26.43C60.5311 26.43 60.9911 26.5433 61.3911 26.77C61.7911 26.9967 62.0978 27.31 62.3111 27.71C62.5311 28.1033 62.6411 28.55 62.6411 29.05ZM61.7011 28.86C61.7011 28.5133 61.6244 28.2167 61.4711 27.97C61.3178 27.7167 61.1078 27.5267 60.8411 27.4C60.5811 27.2667 60.2911 27.2 59.9711 27.2C59.5111 27.2 59.1178 27.3467 58.7911 27.64C58.4711 27.9333 58.2878 28.34 58.2411 28.86H61.7011ZM64.7523 27.54C64.9389 27.2133 65.2123 26.9467 65.5723 26.74C65.9323 26.5333 66.3423 26.43 66.8023 26.43C67.2956 26.43 67.7389 26.5467 68.1323 26.78C68.5256 27.0133 68.8356 27.3433 69.0623 27.77C69.2889 28.19 69.4023 28.68 69.4023 29.24C69.4023 29.7933 69.2889 30.2867 69.0623 30.72C68.8356 31.1533 68.5223 31.49 68.1223 31.73C67.7289 31.97 67.2889 32.09 66.8023 32.09C66.3289 32.09 65.9123 31.9867 65.5523 31.78C65.1989 31.5733 64.9323 31.31 64.7523 30.99V32H63.8423V24.6H64.7523V27.54ZM68.4723 29.24C68.4723 28.8267 68.3889 28.4667 68.2223 28.16C68.0556 27.8533 67.8289 27.62 67.5423 27.46C67.2623 27.3 66.9523 27.22 66.6123 27.22C66.2789 27.22 65.9689 27.3033 65.6823 27.47C65.4023 27.63 65.1756 27.8667 65.0023 28.18C64.8356 28.4867 64.7523 28.8433 64.7523 29.25C64.7523 29.6633 64.8356 30.0267 65.0023 30.34C65.1756 30.6467 65.4023 30.8833 65.6823 31.05C65.9689 31.21 66.2789 31.29 66.6123 31.29C66.9523 31.29 67.2623 31.21 67.5423 31.05C67.8289 30.8833 68.0556 30.6467 68.2223 30.34C68.3889 30.0267 68.4723 29.66 68.4723 29.24ZM72.9901 32.09C72.4767 32.09 72.0101 31.9733 71.5901 31.74C71.1767 31.5067 70.8501 31.1767 70.6101 30.75C70.3767 30.3167 70.2601 29.8167 70.2601 29.25C70.2601 28.69 70.3801 28.1967 70.6201 27.77C70.8667 27.3367 71.2001 27.0067 71.6201 26.78C72.0401 26.5467 72.5101 26.43 73.0301 26.43C73.5501 26.43 74.0201 26.5467 74.4401 26.78C74.8601 27.0067 75.1901 27.3333 75.4301 27.76C75.6767 28.1867 75.8001 28.6833 75.8001 29.25C75.8001 29.8167 75.6734 30.3167 75.4201 30.75C75.1734 31.1767 74.8367 31.5067 74.4101 31.74C73.9834 31.9733 73.5101 32.09 72.9901 32.09ZM72.9901 31.29C73.3167 31.29 73.6234 31.2133 73.9101 31.06C74.1967 30.9067 74.4267 30.6767 74.6001 30.37C74.7801 30.0633 74.8701 29.69 74.8701 29.25C74.8701 28.81 74.7834 28.4367 74.6101 28.13C74.4367 27.8233 74.2101 27.5967 73.9301 27.45C73.6501 27.2967 73.3467 27.22 73.0201 27.22C72.6867 27.22 72.3801 27.2967 72.1001 27.45C71.8267 27.5967 71.6067 27.8233 71.4401 28.13C71.2734 28.4367 71.1901 28.81 71.1901 29.25C71.1901 29.6967 71.2701 30.0733 71.4301 30.38C71.5967 30.6867 71.8167 30.9167 72.0901 31.07C72.3634 31.2167 72.6634 31.29 72.9901 31.29ZM79.3866 32.09C78.8732 32.09 78.4066 31.9733 77.9866 31.74C77.5732 31.5067 77.2466 31.1767 77.0066 30.75C76.7732 30.3167 76.6566 29.8167 76.6566 29.25C76.6566 28.69 76.7766 28.1967 77.0166 27.77C77.2632 27.3367 77.5966 27.0067 78.0166 26.78C78.4366 26.5467 78.9066 26.43 79.4266 26.43C79.9466 26.43 80.4166 26.5467 80.8366 26.78C81.2566 27.0067 81.5866 27.3333 81.8266 27.76C82.0732 28.1867 82.1966 28.6833 82.1966 29.25C82.1966 29.8167 82.0699 30.3167 81.8166 30.75C81.5699 31.1767 81.2332 31.5067 80.8066 31.74C80.3799 31.9733 79.9066 32.09 79.3866 32.09ZM79.3866 31.29C79.7132 31.29 80.0199 31.2133 80.3066 31.06C80.5932 30.9067 80.8232 30.6767 80.9966 30.37C81.1766 30.0633 81.2666 29.69 81.2666 29.25C81.2666 28.81 81.1799 28.4367 81.0066 28.13C80.8332 27.8233 80.6066 27.5967 80.3266 27.45C80.0466 27.2967 79.7432 27.22 79.4166 27.22C79.0832 27.22 78.7766 27.2967 78.4966 27.45C78.2232 27.5967 78.0032 27.8233 77.8366 28.13C77.6699 28.4367 77.5866 28.81 77.5866 29.25C77.5866 29.6967 77.6666 30.0733 77.8266 30.38C77.9932 30.6867 78.2132 30.9167 78.4866 31.07C78.7599 31.2167 79.0599 31.29 79.3866 31.29ZM86.453 32L84.303 29.58V32H83.393V24.6H84.303V28.95L86.413 26.52H87.683L85.103 29.25L87.693 32H86.453ZM96.4855 27.05C96.2922 26.6433 96.0122 26.33 95.6455 26.11C95.2789 25.8833 94.8522 25.77 94.3655 25.77C93.8789 25.77 93.4389 25.8833 93.0455 26.11C92.6589 26.33 92.3522 26.65 92.1255 27.07C91.9055 27.4833 91.7955 27.9633 91.7955 28.51C91.7955 29.0567 91.9055 29.5367 92.1255 29.95C92.3522 30.3633 92.6589 30.6833 93.0455 30.91C93.4389 31.13 93.8789 31.24 94.3655 31.24C95.0455 31.24 95.6055 31.0367 96.0455 30.63C96.4855 30.2233 96.7422 29.6733 96.8155 28.98H94.0355V28.24H97.7855V28.94C97.7322 29.5133 97.5522 30.04 97.2455 30.52C96.9389 30.9933 96.5355 31.37 96.0355 31.65C95.5355 31.9233 94.9789 32.06 94.3655 32.06C93.7189 32.06 93.1289 31.91 92.5955 31.61C92.0622 31.3033 91.6389 30.88 91.3255 30.34C91.0189 29.8 90.8655 29.19 90.8655 28.51C90.8655 27.83 91.0189 27.22 91.3255 26.68C91.6389 26.1333 92.0622 25.71 92.5955 25.41C93.1289 25.1033 93.7189 24.95 94.3655 24.95C95.1055 24.95 95.7589 25.1333 96.3255 25.5C96.8989 25.8667 97.3155 26.3833 97.5755 27.05H96.4855ZM99.8988 27.41C100.059 27.0967 100.285 26.8533 100.579 26.68C100.879 26.5067 101.242 26.42 101.669 26.42V27.36H101.429C100.409 27.36 99.8988 27.9133 99.8988 29.02V32H98.9888V26.52H99.8988V27.41ZM105.109 32.09C104.596 32.09 104.129 31.9733 103.709 31.74C103.296 31.5067 102.969 31.1767 102.729 30.75C102.496 30.3167 102.379 29.8167 102.379 29.25C102.379 28.69 102.499 28.1967 102.739 27.77C102.986 27.3367 103.319 27.0067 103.739 26.78C104.159 26.5467 104.629 26.43 105.149 26.43C105.669 26.43 106.139 26.5467 106.559 26.78C106.979 27.0067 107.309 27.3333 107.549 27.76C107.796 28.1867 107.919 28.6833 107.919 29.25C107.919 29.8167 107.793 30.3167 107.539 30.75C107.293 31.1767 106.956 31.5067 106.529 31.74C106.103 31.9733 105.629 32.09 105.109 32.09ZM105.109 31.29C105.436 31.29 105.743 31.2133 106.029 31.06C106.316 30.9067 106.546 30.6767 106.719 30.37C106.899 30.0633 106.989 29.69 106.989 29.25C106.989 28.81 106.903 28.4367 106.729 28.13C106.556 27.8233 106.329 27.5967 106.049 27.45C105.769 27.2967 105.466 27.22 105.139 27.22C104.806 27.22 104.499 27.2967 104.219 27.45C103.946 27.5967 103.726 27.8233 103.559 28.13C103.393 28.4367 103.309 28.81 103.309 29.25C103.309 29.6967 103.389 30.0733 103.549 30.38C103.716 30.6867 103.936 30.9167 104.209 31.07C104.483 31.2167 104.783 31.29 105.109 31.29ZM113.976 26.52V32H113.066V31.19C112.892 31.47 112.649 31.69 112.336 31.85C112.029 32.0033 111.689 32.08 111.316 32.08C110.889 32.08 110.506 31.9933 110.166 31.82C109.826 31.64 109.556 31.3733 109.356 31.02C109.162 30.6667 109.066 30.2367 109.066 29.73V26.52H109.966V29.61C109.966 30.15 110.102 30.5667 110.376 30.86C110.649 31.1467 111.022 31.29 111.496 31.29C111.982 31.29 112.366 31.14 112.646 30.84C112.926 30.54 113.066 30.1033 113.066 29.53V26.52H113.976ZM116.422 27.53C116.602 27.2167 116.869 26.9567 117.222 26.75C117.582 26.5367 117.999 26.43 118.472 26.43C118.959 26.43 119.399 26.5467 119.792 26.78C120.192 27.0133 120.506 27.3433 120.732 27.77C120.959 28.19 121.072 28.68 121.072 29.24C121.072 29.7933 120.959 30.2867 120.732 30.72C120.506 31.1533 120.192 31.49 119.792 31.73C119.399 31.97 118.959 32.09 118.472 32.09C118.006 32.09 117.592 31.9867 117.232 31.78C116.879 31.5667 116.609 31.3033 116.422 30.99V34.6H115.512V26.52H116.422V27.53ZM120.142 29.24C120.142 28.8267 120.059 28.4667 119.892 28.16C119.726 27.8533 119.499 27.62 119.212 27.46C118.932 27.3 118.622 27.22 118.282 27.22C117.949 27.22 117.639 27.3033 117.352 27.47C117.072 27.63 116.846 27.8667 116.672 28.18C116.506 28.4867 116.422 28.8433 116.422 29.25C116.422 29.6633 116.506 30.0267 116.672 30.34C116.846 30.6467 117.072 30.8833 117.352 31.05C117.639 31.21 117.949 31.29 118.282 31.29C118.622 31.29 118.932 31.21 119.212 31.05C119.499 30.8833 119.726 30.6467 119.892 30.34C120.059 30.0267 120.142 29.66 120.142 29.24Z" fill="#475993"/>
</svg>
