<svg width="105" height="44" viewBox="0 0 105 44" fill="none" xmlns="http://www.w3.org/2000/svg">
<rect width="105" height="44" rx="6" fill="#EEF2FF"/>
<path d="M28.3049 12H13.6951C12.2066 12 11 13.2066 11 14.695V29.3049C11 30.7933 12.2066 31.9999 13.6951 31.9999H20.9006L20.9128 24.853H19.0561C18.8148 24.853 18.6189 24.6579 18.618 24.4166L18.6091 22.1129C18.6082 21.8703 18.8046 21.6731 19.0472 21.6731H20.9006V19.4471C20.9006 16.8638 22.4783 15.4572 24.7827 15.4572H26.6737C26.9157 15.4572 27.1118 15.6534 27.1118 15.8954V17.8379C27.1118 18.0798 26.9158 18.2759 26.674 18.276L25.5135 18.2766C24.2603 18.2766 24.0176 18.8721 24.0176 19.746V21.6731H26.7714C27.0338 21.6731 27.2373 21.9022 27.2064 22.1628L26.9334 24.4666C26.9072 24.687 26.7203 24.8531 26.4983 24.8531H24.0299L24.0176 32H28.305C29.7934 32 31 30.7934 31 29.305V14.695C31 13.2066 29.7934 12 28.3049 12Z" fill="#475993"/>
<path d="M40.8903 18.636V19.524H37.2543V22.344H40.2063V23.232H37.2543V27H36.1623V18.636H40.8903ZM41.8012 23.688C41.8012 23.016 41.9372 22.428 42.2092 21.924C42.4812 21.412 42.8532 21.016 43.3252 20.736C43.8052 20.456 44.3372 20.316 44.9212 20.316C45.4972 20.316 45.9972 20.44 46.4212 20.688C46.8452 20.936 47.1612 21.248 47.3692 21.624V20.424H48.4732V27H47.3692V25.776C47.1532 26.16 46.8292 26.48 46.3972 26.736C45.9732 26.984 45.4772 27.108 44.9092 27.108C44.3252 27.108 43.7972 26.964 43.3252 26.676C42.8532 26.388 42.4812 25.984 42.2092 25.464C41.9372 24.944 41.8012 24.352 41.8012 23.688ZM47.3692 23.7C47.3692 23.204 47.2692 22.772 47.0692 22.404C46.8692 22.036 46.5972 21.756 46.2532 21.564C45.9172 21.364 45.5452 21.264 45.1372 21.264C44.7292 21.264 44.3572 21.36 44.0212 21.552C43.6852 21.744 43.4172 22.024 43.2172 22.392C43.0172 22.76 42.9172 23.192 42.9172 23.688C42.9172 24.192 43.0172 24.632 43.2172 25.008C43.4172 25.376 43.6852 25.66 44.0212 25.86C44.3572 26.052 44.7292 26.148 45.1372 26.148C45.5452 26.148 45.9172 26.052 46.2532 25.86C46.5972 25.66 46.8692 25.376 47.0692 25.008C47.2692 24.632 47.3692 24.196 47.3692 23.7ZM49.9105 23.7C49.9105 23.02 50.0465 22.428 50.3185 21.924C50.5905 21.412 50.9665 21.016 51.4465 20.736C51.9345 20.456 52.4905 20.316 53.1145 20.316C53.9225 20.316 54.5865 20.512 55.1065 20.904C55.6345 21.296 55.9825 21.84 56.1505 22.536H54.9745C54.8625 22.136 54.6425 21.82 54.3145 21.588C53.9945 21.356 53.5945 21.24 53.1145 21.24C52.4905 21.24 51.9865 21.456 51.6025 21.888C51.2185 22.312 51.0265 22.916 51.0265 23.7C51.0265 24.492 51.2185 25.104 51.6025 25.536C51.9865 25.968 52.4905 26.184 53.1145 26.184C53.5945 26.184 53.9945 26.072 54.3145 25.848C54.6345 25.624 54.8545 25.304 54.9745 24.888H56.1505C55.9745 25.56 55.6225 26.1 55.0945 26.508C54.5665 26.908 53.9065 27.108 53.1145 27.108C52.4905 27.108 51.9345 26.968 51.4465 26.688C50.9665 26.408 50.5905 26.012 50.3185 25.5C50.0465 24.988 49.9105 24.388 49.9105 23.7ZM63.6076 23.46C63.6076 23.668 63.5956 23.888 63.5716 24.12H58.3156C58.3556 24.768 58.5756 25.276 58.9756 25.644C59.3836 26.004 59.8756 26.184 60.4516 26.184C60.9236 26.184 61.3156 26.076 61.6276 25.86C61.9476 25.636 62.1716 25.34 62.2996 24.972H63.4756C63.2996 25.604 62.9476 26.12 62.4196 26.52C61.8916 26.912 61.2356 27.108 60.4516 27.108C59.8276 27.108 59.2676 26.968 58.7716 26.688C58.2836 26.408 57.8996 26.012 57.6196 25.5C57.3396 24.98 57.1996 24.38 57.1996 23.7C57.1996 23.02 57.3356 22.424 57.6076 21.912C57.8796 21.4 58.2596 21.008 58.7476 20.736C59.2436 20.456 59.8116 20.316 60.4516 20.316C61.0756 20.316 61.6276 20.452 62.1076 20.724C62.5876 20.996 62.9556 21.372 63.2116 21.852C63.4756 22.324 63.6076 22.86 63.6076 23.46ZM62.4796 23.232C62.4796 22.816 62.3876 22.46 62.2036 22.164C62.0196 21.86 61.7676 21.632 61.4476 21.48C61.1356 21.32 60.7876 21.24 60.4036 21.24C59.8516 21.24 59.3796 21.416 58.9876 21.768C58.6036 22.12 58.3836 22.608 58.3276 23.232H62.4796ZM66.141 21.648C66.365 21.256 66.693 20.936 67.125 20.688C67.557 20.44 68.049 20.316 68.601 20.316C69.193 20.316 69.725 20.456 70.197 20.736C70.669 21.016 71.041 21.412 71.313 21.924C71.585 22.428 71.721 23.016 71.721 23.688C71.721 24.352 71.585 24.944 71.313 25.464C71.041 25.984 70.665 26.388 70.185 26.676C69.713 26.964 69.185 27.108 68.601 27.108C68.033 27.108 67.533 26.984 67.101 26.736C66.677 26.488 66.357 26.172 66.141 25.788V27H65.049V18.12H66.141V21.648ZM70.605 23.688C70.605 23.192 70.505 22.76 70.305 22.392C70.105 22.024 69.833 21.744 69.489 21.552C69.153 21.36 68.781 21.264 68.373 21.264C67.973 21.264 67.601 21.364 67.257 21.564C66.921 21.756 66.649 22.04 66.441 22.416C66.241 22.784 66.141 23.212 66.141 23.7C66.141 24.196 66.241 24.632 66.441 25.008C66.649 25.376 66.921 25.66 67.257 25.86C67.601 26.052 67.973 26.148 68.373 26.148C68.781 26.148 69.153 26.052 69.489 25.86C69.833 25.66 70.105 25.376 70.305 25.008C70.505 24.632 70.605 24.192 70.605 23.688ZM76.0264 27.108C75.4104 27.108 74.8504 26.968 74.3464 26.688C73.8504 26.408 73.4584 26.012 73.1704 25.5C72.8904 24.98 72.7504 24.38 72.7504 23.7C72.7504 23.028 72.8944 22.436 73.1824 21.924C73.4784 21.404 73.8784 21.008 74.3824 20.736C74.8864 20.456 75.4504 20.316 76.0744 20.316C76.6984 20.316 77.2624 20.456 77.7664 20.736C78.2704 21.008 78.6664 21.4 78.9544 21.912C79.2504 22.424 79.3984 23.02 79.3984 23.7C79.3984 24.38 79.2464 24.98 78.9424 25.5C78.6464 26.012 78.2424 26.408 77.7304 26.688C77.2184 26.968 76.6504 27.108 76.0264 27.108ZM76.0264 26.148C76.4184 26.148 76.7864 26.056 77.1304 25.872C77.4744 25.688 77.7504 25.412 77.9584 25.044C78.1744 24.676 78.2824 24.228 78.2824 23.7C78.2824 23.172 78.1784 22.724 77.9704 22.356C77.7624 21.988 77.4904 21.716 77.1544 21.54C76.8184 21.356 76.4544 21.264 76.0624 21.264C75.6624 21.264 75.2944 21.356 74.9584 21.54C74.6304 21.716 74.3664 21.988 74.1664 22.356C73.9664 22.724 73.8664 23.172 73.8664 23.7C73.8664 24.236 73.9624 24.688 74.1544 25.056C74.3544 25.424 74.6184 25.7 74.9464 25.884C75.2744 26.06 75.6344 26.148 76.0264 26.148ZM83.7022 27.108C83.0862 27.108 82.5262 26.968 82.0222 26.688C81.5262 26.408 81.1342 26.012 80.8462 25.5C80.5662 24.98 80.4262 24.38 80.4262 23.7C80.4262 23.028 80.5702 22.436 80.8582 21.924C81.1542 21.404 81.5542 21.008 82.0582 20.736C82.5622 20.456 83.1262 20.316 83.7502 20.316C84.3742 20.316 84.9382 20.456 85.4422 20.736C85.9462 21.008 86.3422 21.4 86.6302 21.912C86.9262 22.424 87.0742 23.02 87.0742 23.7C87.0742 24.38 86.9222 24.98 86.6182 25.5C86.3222 26.012 85.9182 26.408 85.4062 26.688C84.8942 26.968 84.3262 27.108 83.7022 27.108ZM83.7022 26.148C84.0942 26.148 84.4622 26.056 84.8062 25.872C85.1502 25.688 85.4262 25.412 85.6342 25.044C85.8502 24.676 85.9582 24.228 85.9582 23.7C85.9582 23.172 85.8542 22.724 85.6462 22.356C85.4382 21.988 85.1662 21.716 84.8302 21.54C84.4942 21.356 84.1302 21.264 83.7382 21.264C83.3382 21.264 82.9702 21.356 82.6342 21.54C82.3062 21.716 82.0422 21.988 81.8422 22.356C81.6422 22.724 81.5422 23.172 81.5422 23.7C81.5422 24.236 81.6382 24.688 81.8302 25.056C82.0302 25.424 82.2942 25.7 82.6222 25.884C82.9502 26.06 83.3102 26.148 83.7022 26.148ZM92.1819 27L89.6019 24.096V27H88.5099V18.12H89.6019V23.34L92.1339 20.424H93.6579L90.5619 23.7L93.6699 27H92.1819Z" fill="#475993"/>
</svg>
