<svg width="20" height="18" viewBox="0 0 20 18" fill="none" xmlns="http://www.w3.org/2000/svg">
<path d="M18.8086 7.31954L10.2763 1.09008C10.1118 0.969974 9.88827 0.969974 9.72381 1.09008L1.19148 7.31954C0.98307 7.47172 0.937789 7.76353 1.0904 7.97135C1.24302 8.17916 1.53569 8.22425 1.74406 8.07214L10 2.04436L18.256 8.0721C18.3393 8.13293 18.436 8.1622 18.5319 8.1622C18.6759 8.1622 18.818 8.09612 18.9096 7.97131C19.0623 7.76353 19.017 7.47172 18.8086 7.31954Z" fill="#824B16" stroke="#824B16" stroke-width="0.5"/>
<path d="M16.548 8.17773C16.2897 8.17773 16.0803 8.38653 16.0803 8.64409V16.0673H12.3389V12.0152C12.3389 10.7294 11.2898 9.68328 10.0003 9.68328C8.71088 9.68328 7.66175 10.7294 7.66175 12.0152V16.0673H3.92032V8.64413C3.92032 8.38657 3.71089 8.17777 3.45264 8.17777C3.19438 8.17777 2.98495 8.38657 2.98495 8.64413V16.5337C2.98495 16.7913 3.19438 17.0001 3.45264 17.0001H8.12943C8.37538 17.0001 8.57665 16.8106 8.59528 16.5701C8.59641 16.5591 8.59711 16.5472 8.59711 16.5337V12.0153C8.59711 11.2437 9.22658 10.616 10.0003 10.616C10.7741 10.616 11.4036 11.2438 11.4036 12.0153V16.5337C11.4036 16.5472 11.4043 16.5589 11.4054 16.5696C11.4238 16.8104 11.6251 17.0001 11.8712 17.0001H16.548C16.8063 17.0001 17.0157 16.7913 17.0157 16.5337V8.64413C17.0157 8.38653 16.8063 8.17773 16.548 8.17773Z" fill="#824B16" stroke="#824B16" stroke-width="0.5"/>
</svg>
