<svg width="157" height="44" viewBox="0 0 157 44" fill="none" xmlns="http://www.w3.org/2000/svg">
<rect width="157" height="44" rx="6" fill="#FFEEFA"/>
<path d="M40.2053 27H41.2973V18.636H40.2053V27ZM47.9704 27H49.0504V23.124C49.0504 21.24 47.8864 20.304 46.3624 20.304C45.4744 20.304 44.6824 20.676 44.2504 21.36V20.424H43.1584V27H44.2504V23.364C44.2504 21.948 45.0184 21.252 46.1344 21.252C47.2384 21.252 47.9704 21.936 47.9704 23.28V27ZM55.5622 25.212C55.5142 22.86 51.6982 23.712 51.6982 22.152C51.6982 21.624 52.1782 21.24 52.9822 21.24C53.8582 21.24 54.3622 21.72 54.4102 22.38H55.5022C55.4302 21.096 54.4702 20.316 53.0182 20.316C51.5542 20.316 50.6062 21.144 50.6062 22.152C50.6062 24.6 54.4942 23.748 54.4942 25.212C54.4942 25.752 54.0142 26.184 53.1502 26.184C52.2262 26.184 51.6622 25.704 51.6022 25.068H50.4742C50.5462 26.268 51.6262 27.108 53.1622 27.108C54.6142 27.108 55.5622 26.292 55.5622 25.212ZM57.3437 25.2C57.3437 26.52 58.0037 27 59.1677 27H60.1517V26.076H59.3477C58.6757 26.076 58.4357 25.848 58.4357 25.2V21.324H60.1517V20.424H58.4357V18.768H57.3437V20.424H56.4917V21.324H57.3437V25.2ZM61.0668 23.688C61.0668 25.728 62.4228 27.108 64.1748 27.108C65.3868 27.108 66.2388 26.484 66.6348 25.776V27H67.7388V20.424H66.6348V21.624C66.2508 20.94 65.4108 20.316 64.1868 20.316C62.4228 20.316 61.0668 21.636 61.0668 23.688ZM66.6348 23.7C66.6348 25.248 65.6028 26.148 64.4028 26.148C63.2028 26.148 62.1828 25.236 62.1828 23.688C62.1828 22.14 63.2028 21.264 64.4028 21.264C65.6028 21.264 66.6348 22.176 66.6348 23.7ZM69.1762 23.688C69.1762 25.728 70.5322 27.108 72.2962 27.108C73.4962 27.108 74.3482 26.472 74.7442 25.764V27.144C74.7442 28.548 73.8682 29.292 72.7042 29.292C71.6242 29.292 70.8442 28.752 70.6042 27.96H69.5242C69.7402 29.364 70.9762 30.24 72.7042 30.24C74.6362 30.24 75.8482 28.956 75.8482 27.144V20.424H74.7442V21.624C74.3602 20.916 73.4962 20.316 72.2962 20.316C70.5322 20.316 69.1762 21.636 69.1762 23.688ZM74.7442 23.7C74.7442 25.248 73.7122 26.148 72.5122 26.148C71.3122 26.148 70.2922 25.236 70.2922 23.688C70.2922 22.14 71.3122 21.264 72.5122 21.264C73.7122 21.264 74.7442 22.176 74.7442 23.7ZM78.7855 23.424C78.7855 21.9 79.5775 21.432 80.6215 21.432H80.9095V20.304C79.8655 20.304 79.1575 20.76 78.7855 21.492V20.424H77.6935V27H78.7855V23.424ZM81.7621 23.688C81.7621 25.728 83.1181 27.108 84.8701 27.108C86.0821 27.108 86.9341 26.484 87.3301 25.776V27H88.4341V20.424H87.3301V21.624C86.9461 20.94 86.1061 20.316 84.8821 20.316C83.1181 20.316 81.7621 21.636 81.7621 23.688ZM87.3301 23.7C87.3301 25.248 86.2981 26.148 85.0981 26.148C83.8981 26.148 82.8781 25.236 82.8781 23.688C82.8781 22.14 83.8981 21.264 85.0981 21.264C86.2981 21.264 87.3301 22.176 87.3301 23.7ZM99.7715 27H100.851V23.124C100.851 21.24 99.6875 20.304 98.1875 20.304C97.1795 20.304 96.2435 20.82 95.8595 21.768C95.4275 20.784 94.5275 20.304 93.4475 20.304C92.5835 20.304 91.8035 20.676 91.3715 21.372V20.424H90.2795V27H91.3715V23.376C91.3715 21.96 92.1275 21.252 93.2315 21.252C94.3115 21.252 95.0315 21.936 95.0315 23.28V27H96.1115V23.376C96.1115 21.96 96.8675 21.252 97.9715 21.252C99.0515 21.252 99.7715 21.936 99.7715 23.28V27Z" fill="#C74950"/>
<path d="M29.0419 12H20.9581C17.6728 12 15 14.6728 15 17.9581V26.0419C15 29.3272 17.6728 32 20.9581 32H29.0419C32.3272 32 35 29.3272 35 26.0419V17.9581C35 14.6728 32.3272 12 29.0419 12ZM32.988 26.0419C32.988 28.2213 31.2213 29.988 29.0419 29.988H20.9581C18.7788 29.988 17.012 28.2213 17.012 26.0419V17.9581C17.012 15.7787 18.7788 14.012 20.9581 14.012H29.0419C31.2213 14.012 32.988 15.7787 32.988 17.9581V26.0419Z" fill="url(#paint0_linear_1331_48)"/>
<path d="M25 16.8275C22.1477 16.8275 19.8273 19.148 19.8273 22.0002C19.8273 24.8524 22.1477 27.1729 25 27.1729C27.8522 27.1729 30.1727 24.8524 30.1727 22.0002C30.1727 19.148 27.8522 16.8275 25 16.8275ZM25 25.1609C23.2544 25.1609 21.8393 23.7459 21.8393 22.0002C21.8393 20.2546 23.2544 18.8395 25 18.8395C26.7456 18.8395 28.1607 20.2546 28.1607 22.0002C28.1607 23.7458 26.7456 25.1609 25 25.1609Z" fill="url(#paint1_linear_1331_48)"/>
<path d="M30.1826 18.1056C30.8672 18.1056 31.4221 17.5507 31.4221 16.8661C31.4221 16.1816 30.8672 15.6266 30.1826 15.6266C29.4981 15.6266 28.9431 16.1816 28.9431 16.8661C28.9431 17.5507 29.4981 18.1056 30.1826 18.1056Z" fill="url(#paint2_linear_1331_48)"/>
<defs>
<linearGradient id="paint0_linear_1331_48" x1="25" y1="31.9418" x2="25" y2="12.1553" gradientUnits="userSpaceOnUse">
<stop stop-color="#E09B3D"/>
<stop offset="0.3" stop-color="#C74C4D"/>
<stop offset="0.6" stop-color="#C21975"/>
<stop offset="1" stop-color="#7024C4"/>
</linearGradient>
<linearGradient id="paint1_linear_1331_48" x1="25" y1="31.942" x2="25" y2="12.1556" gradientUnits="userSpaceOnUse">
<stop stop-color="#E09B3D"/>
<stop offset="0.3" stop-color="#C74C4D"/>
<stop offset="0.6" stop-color="#C21975"/>
<stop offset="1" stop-color="#7024C4"/>
</linearGradient>
<linearGradient id="paint2_linear_1331_48" x1="30.1826" y1="31.9418" x2="30.1826" y2="12.1554" gradientUnits="userSpaceOnUse">
<stop stop-color="#E09B3D"/>
<stop offset="0.3" stop-color="#C74C4D"/>
<stop offset="0.6" stop-color="#C21975"/>
<stop offset="1" stop-color="#7024C4"/>
</linearGradient>
</defs>
</svg>
