<svg width="105" height="44" viewBox="0 0 105 44" fill="none" xmlns="http://www.w3.org/2000/svg">
<rect width="105" height="44" rx="6" fill="#FFEEFA"/>
<path d="M35.2973 18.636V27H34.2053V18.636H35.2973ZM40.3624 20.304C41.1624 20.304 41.8104 20.548 42.3064 21.036C42.8024 21.516 43.0504 22.212 43.0504 23.124V27H41.9704V23.28C41.9704 22.624 41.8064 22.124 41.4784 21.78C41.1504 21.428 40.7024 21.252 40.1344 21.252C39.5584 21.252 39.0984 21.432 38.7544 21.792C38.4184 22.152 38.2504 22.676 38.2504 23.364V27H37.1584V20.424H38.2504V21.36C38.4664 21.024 38.7584 20.764 39.1264 20.58C39.5024 20.396 39.9144 20.304 40.3624 20.304ZM47.1622 27.108C46.6582 27.108 46.2062 27.024 45.8062 26.856C45.4062 26.68 45.0902 26.44 44.8582 26.136C44.6262 25.824 44.4982 25.468 44.4742 25.068H45.6022C45.6342 25.396 45.7862 25.664 46.0582 25.872C46.3382 26.08 46.7022 26.184 47.1502 26.184C47.5662 26.184 47.8942 26.092 48.1342 25.908C48.3742 25.724 48.4942 25.492 48.4942 25.212C48.4942 24.924 48.3662 24.712 48.1102 24.576C47.8542 24.432 47.4582 24.292 46.9222 24.156C46.4342 24.028 46.0342 23.9 45.7222 23.772C45.4182 23.636 45.1542 23.44 44.9302 23.184C44.7142 22.92 44.6062 22.576 44.6062 22.152C44.6062 21.816 44.7062 21.508 44.9062 21.228C45.1062 20.948 45.3902 20.728 45.7582 20.568C46.1262 20.4 46.5462 20.316 47.0182 20.316C47.7462 20.316 48.3342 20.5 48.7822 20.868C49.2302 21.236 49.4702 21.74 49.5022 22.38H48.4102C48.3862 22.036 48.2462 21.76 47.9902 21.552C47.7422 21.344 47.4062 21.24 46.9822 21.24C46.5902 21.24 46.2782 21.324 46.0462 21.492C45.8142 21.66 45.6982 21.88 45.6982 22.152C45.6982 22.368 45.7662 22.548 45.9022 22.692C46.0462 22.828 46.2222 22.94 46.4302 23.028C46.6462 23.108 46.9422 23.2 47.3182 23.304C47.7902 23.432 48.1742 23.56 48.4702 23.688C48.7662 23.808 49.0182 23.992 49.2262 24.24C49.4422 24.488 49.5542 24.812 49.5622 25.212C49.5622 25.572 49.4622 25.896 49.2622 26.184C49.0622 26.472 48.7782 26.7 48.4102 26.868C48.0502 27.028 47.6342 27.108 47.1622 27.108ZM52.4357 21.324V25.2C52.4357 25.52 52.5037 25.748 52.6397 25.884C52.7757 26.012 53.0117 26.076 53.3477 26.076H54.1517V27H53.1677C52.5597 27 52.1037 26.86 51.7997 26.58C51.4957 26.3 51.3437 25.84 51.3437 25.2V21.324H50.4917V20.424H51.3437V18.768H52.4357V20.424H54.1517V21.324H52.4357ZM55.0668 23.688C55.0668 23.016 55.2028 22.428 55.4748 21.924C55.7468 21.412 56.1188 21.016 56.5908 20.736C57.0708 20.456 57.6028 20.316 58.1868 20.316C58.7628 20.316 59.2628 20.44 59.6868 20.688C60.1108 20.936 60.4268 21.248 60.6348 21.624V20.424H61.7388V27H60.6348V25.776C60.4188 26.16 60.0948 26.48 59.6628 26.736C59.2388 26.984 58.7428 27.108 58.1748 27.108C57.5908 27.108 57.0628 26.964 56.5908 26.676C56.1188 26.388 55.7468 25.984 55.4748 25.464C55.2028 24.944 55.0668 24.352 55.0668 23.688ZM60.6348 23.7C60.6348 23.204 60.5348 22.772 60.3348 22.404C60.1348 22.036 59.8628 21.756 59.5188 21.564C59.1828 21.364 58.8108 21.264 58.4028 21.264C57.9948 21.264 57.6228 21.36 57.2868 21.552C56.9508 21.744 56.6828 22.024 56.4828 22.392C56.2828 22.76 56.1828 23.192 56.1828 23.688C56.1828 24.192 56.2828 24.632 56.4828 25.008C56.6828 25.376 56.9508 25.66 57.2868 25.86C57.6228 26.052 57.9948 26.148 58.4028 26.148C58.8108 26.148 59.1828 26.052 59.5188 25.86C59.8628 25.66 60.1348 25.376 60.3348 25.008C60.5348 24.632 60.6348 24.196 60.6348 23.7ZM66.2962 20.316C66.8642 20.316 67.3602 20.44 67.7842 20.688C68.2162 20.936 68.5362 21.248 68.7442 21.624V20.424H69.8482V27.144C69.8482 27.744 69.7202 28.276 69.4642 28.74C69.2082 29.212 68.8402 29.58 68.3602 29.844C67.8882 30.108 67.3362 30.24 66.7042 30.24C65.8402 30.24 65.1202 30.036 64.5442 29.628C63.9682 29.22 63.6282 28.664 63.5242 27.96H64.6042C64.7242 28.36 64.9722 28.68 65.3482 28.92C65.7242 29.168 66.1762 29.292 66.7042 29.292C67.3042 29.292 67.7922 29.104 68.1682 28.728C68.5522 28.352 68.7442 27.824 68.7442 27.144V25.764C68.5282 26.148 68.2082 26.468 67.7842 26.724C67.3602 26.98 66.8642 27.108 66.2962 27.108C65.7122 27.108 65.1802 26.964 64.7002 26.676C64.2282 26.388 63.8562 25.984 63.5842 25.464C63.3122 24.944 63.1762 24.352 63.1762 23.688C63.1762 23.016 63.3122 22.428 63.5842 21.924C63.8562 21.412 64.2282 21.016 64.7002 20.736C65.1802 20.456 65.7122 20.316 66.2962 20.316ZM68.7442 23.7C68.7442 23.204 68.6442 22.772 68.4442 22.404C68.2442 22.036 67.9722 21.756 67.6282 21.564C67.2922 21.364 66.9202 21.264 66.5122 21.264C66.1042 21.264 65.7322 21.36 65.3962 21.552C65.0602 21.744 64.7922 22.024 64.5922 22.392C64.3922 22.76 64.2922 23.192 64.2922 23.688C64.2922 24.192 64.3922 24.632 64.5922 25.008C64.7922 25.376 65.0602 25.66 65.3962 25.86C65.7322 26.052 66.1042 26.148 66.5122 26.148C66.9202 26.148 67.2922 26.052 67.6282 25.86C67.9722 25.66 68.2442 25.376 68.4442 25.008C68.6442 24.632 68.7442 24.196 68.7442 23.7ZM72.7855 21.492C72.9775 21.116 73.2495 20.824 73.6015 20.616C73.9615 20.408 74.3975 20.304 74.9095 20.304V21.432H74.6215C73.3975 21.432 72.7855 22.096 72.7855 23.424V27H71.6935V20.424H72.7855V21.492ZM75.7621 23.688C75.7621 23.016 75.8981 22.428 76.1701 21.924C76.4421 21.412 76.8141 21.016 77.2861 20.736C77.7661 20.456 78.2981 20.316 78.8821 20.316C79.4581 20.316 79.9581 20.44 80.3821 20.688C80.8061 20.936 81.1221 21.248 81.3301 21.624V20.424H82.4341V27H81.3301V25.776C81.1141 26.16 80.7901 26.48 80.3581 26.736C79.9341 26.984 79.4381 27.108 78.8701 27.108C78.2861 27.108 77.7581 26.964 77.2861 26.676C76.8141 26.388 76.4421 25.984 76.1701 25.464C75.8981 24.944 75.7621 24.352 75.7621 23.688ZM81.3301 23.7C81.3301 23.204 81.2301 22.772 81.0301 22.404C80.8301 22.036 80.5581 21.756 80.2141 21.564C79.8781 21.364 79.5061 21.264 79.0981 21.264C78.6901 21.264 78.3181 21.36 77.9821 21.552C77.6461 21.744 77.3781 22.024 77.1781 22.392C76.9781 22.76 76.8781 23.192 76.8781 23.688C76.8781 24.192 76.9781 24.632 77.1781 25.008C77.3781 25.376 77.6461 25.66 77.9821 25.86C78.3181 26.052 78.6901 26.148 79.0981 26.148C79.5061 26.148 79.8781 26.052 80.2141 25.86C80.5581 25.66 80.8301 25.376 81.0301 25.008C81.2301 24.632 81.3301 24.196 81.3301 23.7ZM92.1875 20.304C92.6995 20.304 93.1555 20.412 93.5555 20.628C93.9555 20.836 94.2715 21.152 94.5035 21.576C94.7355 22 94.8515 22.516 94.8515 23.124V27H93.7715V23.28C93.7715 22.624 93.6075 22.124 93.2795 21.78C92.9595 21.428 92.5235 21.252 91.9715 21.252C91.4035 21.252 90.9515 21.436 90.6155 21.804C90.2795 22.164 90.1115 22.688 90.1115 23.376V27H89.0315V23.28C89.0315 22.624 88.8675 22.124 88.5395 21.78C88.2195 21.428 87.7835 21.252 87.2315 21.252C86.6635 21.252 86.2115 21.436 85.8755 21.804C85.5395 22.164 85.3715 22.688 85.3715 23.376V27H84.2795V20.424H85.3715V21.372C85.5875 21.028 85.8755 20.764 86.2355 20.58C86.6035 20.396 87.0075 20.304 87.4475 20.304C87.9995 20.304 88.4875 20.428 88.9115 20.676C89.3355 20.924 89.6515 21.288 89.8595 21.768C90.0435 21.304 90.3475 20.944 90.7715 20.688C91.1955 20.432 91.6675 20.304 92.1875 20.304Z" fill="#C74950"/>
<path d="M23.0419 12H14.9581C11.6728 12 9 14.6728 9 17.9581V26.0419C9 29.3272 11.6728 32 14.9581 32H23.0419C26.3272 32 29 29.3272 29 26.0419V17.9581C29 14.6728 26.3272 12 23.0419 12ZM26.988 26.0419C26.988 28.2213 25.2213 29.988 23.0419 29.988H14.9581C12.7788 29.988 11.012 28.2213 11.012 26.0419V17.9581C11.012 15.7787 12.7788 14.012 14.9581 14.012H23.0419C25.2213 14.012 26.988 15.7787 26.988 17.9581V26.0419Z" fill="url(#paint0_linear)"/>
<path d="M19 16.8275C16.1478 16.8275 13.8273 19.148 13.8273 22.0002C13.8273 24.8524 16.1478 27.1729 19 27.1729C21.8522 27.1729 24.1727 24.8524 24.1727 22.0002C24.1727 19.148 21.8522 16.8275 19 16.8275ZM19 25.1609C17.2544 25.1609 15.8393 23.7459 15.8393 22.0002C15.8393 20.2546 17.2544 18.8395 19 18.8395C20.7456 18.8395 22.1607 20.2546 22.1607 22.0002C22.1607 23.7458 20.7456 25.1609 19 25.1609Z" fill="url(#paint1_linear)"/>
<path d="M24.1826 18.1056C24.8671 18.1056 25.4221 17.5507 25.4221 16.8661C25.4221 16.1816 24.8671 15.6266 24.1826 15.6266C23.498 15.6266 22.9431 16.1816 22.9431 16.8661C22.9431 17.5507 23.498 18.1056 24.1826 18.1056Z" fill="url(#paint2_linear)"/>
<defs>
<linearGradient id="paint0_linear" x1="19" y1="31.9418" x2="19" y2="12.1553" gradientUnits="userSpaceOnUse">
<stop stop-color="#E09B3D"/>
<stop offset="0.3" stop-color="#C74C4D"/>
<stop offset="0.6" stop-color="#C21975"/>
<stop offset="1" stop-color="#7024C4"/>
</linearGradient>
<linearGradient id="paint1_linear" x1="19" y1="31.942" x2="19" y2="12.1556" gradientUnits="userSpaceOnUse">
<stop stop-color="#E09B3D"/>
<stop offset="0.3" stop-color="#C74C4D"/>
<stop offset="0.6" stop-color="#C21975"/>
<stop offset="1" stop-color="#7024C4"/>
</linearGradient>
<linearGradient id="paint2_linear" x1="24.1826" y1="31.9418" x2="24.1826" y2="12.1554" gradientUnits="userSpaceOnUse">
<stop stop-color="#E09B3D"/>
<stop offset="0.3" stop-color="#C74C4D"/>
<stop offset="0.6" stop-color="#C21975"/>
<stop offset="1" stop-color="#7024C4"/>
</linearGradient>
</defs>
</svg>
