<svg width="16" height="16" viewBox="0 0 16 16" fill="none" xmlns="http://www.w3.org/2000/svg">
<path d="M2.20044 3.8713C2.01714 3.75528 1.77452 3.80987 1.65846 3.99306C0.7618 5.40924 0.364865 7.11238 0.540788 8.78877C0.719302 10.49 1.48501 12.0943 2.69687 13.3062C4.15935 14.7687 6.08043 15.5 8.00156 15.5C9.92268 15.5 11.8437 14.7688 13.3062 13.3062C16.2313 10.3812 16.2313 5.62185 13.3062 2.69687C12.0962 1.4869 10.4946 0.721461 8.79613 0.541571C7.12285 0.364234 5.42156 0.758067 4.00597 1.65033C3.82243 1.766 3.76748 2.00854 3.88311 2.19204C3.99878 2.37558 4.24132 2.43053 4.42482 2.3149C7.09323 0.633048 10.5169 1.01848 12.7507 3.25233C15.3695 5.87106 15.3695 10.132 12.7507 12.7508C10.1321 15.3695 5.87105 15.3695 3.25236 12.7508C1.04939 10.5478 0.658187 7.04137 2.3222 4.41333C2.43819 4.23002 2.38371 3.98736 2.20044 3.8713Z" fill="#9C5A19" stroke="#9C5A19" stroke-width="0.2"/>
<path d="M13.1076 8.40053H13.5919C13.8088 8.40053 13.9847 8.22465 13.9847 8.00776C13.9847 7.79087 13.8088 7.61499 13.5919 7.61499H13.1076C12.8907 7.61499 12.7148 7.79087 12.7148 8.00776C12.7148 8.22465 12.8906 8.40053 13.1076 8.40053Z" fill="#9C5A19" stroke="#9C5A19" stroke-width="0.2"/>
<path d="M2.01837 7.99531C2.01837 8.2122 2.19425 8.38808 2.41114 8.38808H2.89551C3.1124 8.38808 3.28828 8.2122 3.28828 7.99531C3.28828 7.77842 3.1124 7.60254 2.89551 7.60254H2.41114C2.19425 7.60254 2.01837 7.77838 2.01837 7.99531Z" fill="#9C5A19" stroke="#9C5A19" stroke-width="0.2"/>
<path d="M8.40053 2.89539V2.41102C8.40053 2.19413 8.22465 2.01825 8.00776 2.01825C7.79087 2.01825 7.61499 2.19413 7.61499 2.41102V2.89539C7.61499 3.11228 7.79087 3.28816 8.00776 3.28816C8.22465 3.28816 8.40053 3.11228 8.40053 2.89539Z" fill="#9C5A19" stroke="#9C5A19" stroke-width="0.2"/>
<path d="M7.60223 13.1076V13.592C7.60223 13.8089 7.77812 13.9848 7.99501 13.9848C8.21189 13.9848 8.38778 13.8089 8.38778 13.592V13.1076C8.38778 12.8907 8.21189 12.7148 7.99501 12.7148C7.77812 12.7148 7.60223 12.8907 7.60223 13.1076Z" fill="#9C5A19" stroke="#9C5A19" stroke-width="0.2"/>
<path d="M6.03277 5.47726C5.87936 5.32392 5.63073 5.32392 5.47728 5.47726C5.3239 5.63064 5.3239 5.87934 5.47728 6.03276L6.80842 7.36391C6.70641 7.55401 6.6484 7.77109 6.6484 8.00149C6.6484 8.7476 7.25539 9.3546 8.0015 9.3546C8.74761 9.3546 9.3546 8.7476 9.3546 8.00149C9.3546 7.77109 9.29654 7.55401 9.19458 7.36391L11.8805 4.67801C12.0338 4.52463 12.0338 4.27593 11.8805 4.12251C11.7271 3.96917 11.4784 3.96917 11.325 4.12251L8.63908 6.80841C8.44898 6.70641 8.2319 6.64839 8.0015 6.64839C7.7711 6.64839 7.55401 6.70644 7.36391 6.80841L6.03277 5.47726ZM8.56905 8.00149C8.56905 8.31446 8.31446 8.56905 8.0015 8.56905C7.68854 8.56905 7.43394 8.31446 7.43394 8.00149C7.43394 7.68853 7.68854 7.43394 8.0015 7.43394C8.31446 7.43394 8.56905 7.68853 8.56905 8.00149Z" fill="#9C5A19" stroke="#9C5A19" stroke-width="0.2"/>
<path d="M3.25225 3.25207C3.3257 3.17901 3.36768 3.07768 3.36768 2.97438C3.36768 2.87108 3.3257 2.77013 3.25225 2.69669C3.17919 2.62367 3.07821 2.5816 2.97456 2.5816C2.87126 2.5816 2.76992 2.62363 2.69687 2.69669C2.62385 2.76974 2.58179 2.87108 2.58179 2.97438C2.58179 3.07807 2.62381 3.17901 2.69687 3.25207C2.76992 3.32508 2.87126 3.36715 2.97456 3.36715C3.07821 3.36715 3.17919 3.32508 3.25225 3.25207Z" fill="#9C5A19" stroke="#9C5A19" stroke-width="0.2"/>
</svg>
