<svg width="16" height="16" viewBox="0 0 16 16" fill="none" xmlns="http://www.w3.org/2000/svg">
<path d="M8.71958 15.2581H8.11613C8.06113 15.2581 8.00838 15.2363 7.96949 15.1974C7.9306 15.1585 7.90875 15.1058 7.90875 15.0508C7.90875 14.9958 7.9306 14.943 7.96949 14.9041C8.00838 14.8652 8.06113 14.8434 8.11613 14.8434H8.71958C8.77458 14.8434 8.82733 14.8652 8.86622 14.9041C8.90511 14.943 8.92695 14.9958 8.92695 15.0508C8.92695 15.1058 8.90511 15.1585 8.86622 15.1974C8.82733 15.2363 8.77458 15.2581 8.71958 15.2581Z" fill="#9C5A19"/>
<path fill-rule="evenodd" clip-rule="evenodd" d="M7.79847 14.733C7.88273 14.6488 7.99702 14.6014 8.11618 14.6014H8.71963C8.8388 14.6014 8.95308 14.6488 9.03734 14.733C9.1216 14.8173 9.16894 14.9316 9.16894 15.0507C9.16894 15.1699 9.1216 15.2842 9.03734 15.3685C8.95308 15.4527 8.8388 15.5001 8.71963 15.5001H8.11618C7.99702 15.5001 7.88273 15.4527 7.79847 15.3685C7.71421 15.2842 7.66687 15.1699 7.66687 15.0507C7.66687 14.9316 7.71421 14.8173 7.79847 14.733Z" fill="#9C5A19"/>
<path d="M14.6358 15.258H12.2386C12.1836 15.258 12.1308 15.2362 12.092 15.1973C12.0531 15.1584 12.0312 15.1057 12.0312 15.0507C12.0312 14.9957 12.0531 14.9429 12.092 14.904C12.1308 14.8651 12.1836 14.8433 12.2386 14.8433H14.6358C14.6908 14.8433 14.7436 14.8214 14.7825 14.7825C14.8214 14.7437 14.8432 14.6909 14.8432 14.6359V5.60273H1.15657V14.6359C1.15657 14.6909 1.17842 14.7437 1.21731 14.7825C1.2562 14.8214 1.30894 14.8433 1.36394 14.8433H6.6644C6.7194 14.8433 6.77215 14.8651 6.81104 14.904C6.84993 14.9429 6.87177 14.9957 6.87177 15.0507C6.87177 15.1057 6.84993 15.1584 6.81104 15.1973C6.77215 15.2362 6.7194 15.258 6.6644 15.258H1.36394C1.19894 15.258 1.04071 15.1925 0.924036 15.0758C0.807366 14.9591 0.741821 14.8009 0.741821 14.6359V5.39536C0.741821 5.34036 0.763669 5.28762 0.80256 5.24873C0.84145 5.20984 0.894196 5.18799 0.949195 5.18799H15.0506C15.1056 5.18799 15.1583 5.20984 15.1972 5.24873C15.2361 5.28762 15.2579 5.34036 15.2579 5.39536V14.6359C15.2579 14.8009 15.1924 14.9591 15.0757 15.0758C14.9591 15.1925 14.8008 15.258 14.6358 15.258Z" fill="#9C5A19"/>
<path fill-rule="evenodd" clip-rule="evenodd" d="M0.631599 5.07752C0.715862 4.99326 0.830145 4.94592 0.949309 4.94592H15.0507C15.1699 4.94592 15.2841 4.99326 15.3684 5.07752C15.4527 5.16178 15.5 5.27607 15.5 5.39523V14.6358C15.5 14.8649 15.409 15.0847 15.2469 15.2468C15.0849 15.4088 14.8651 15.4998 14.6359 15.4998H12.2387C12.1195 15.4998 12.0053 15.4525 11.921 15.3682C11.8367 15.284 11.7894 15.1697 11.7894 15.0505C11.7894 14.9314 11.8367 14.8171 11.921 14.7328C12.0053 14.6486 12.1195 14.6012 12.2387 14.6012H14.6014V5.84454H1.39862V14.6012H6.66452C6.78368 14.6012 6.89796 14.6486 6.98222 14.7328C7.06649 14.8171 7.11382 14.9314 7.11382 15.0505C7.11382 15.1697 7.06649 15.284 6.98222 15.3682C6.89796 15.4525 6.78368 15.4998 6.66452 15.4998H1.36406C1.13489 15.4998 0.915118 15.4088 0.753076 15.2468C0.591034 15.0847 0.5 14.8649 0.5 14.6358V5.39523C0.5 5.27607 0.547338 5.16178 0.631599 5.07752Z" fill="#9C5A19"/>
<path d="M10.787 15.2581H10.1711C10.1161 15.2581 10.0633 15.2363 10.0244 15.1974C9.98553 15.1585 9.96368 15.1058 9.96368 15.0508C9.96368 14.9958 9.98553 14.943 10.0244 14.9041C10.0633 14.8652 10.1161 14.8434 10.1711 14.8434H10.787C10.842 14.8434 10.8947 14.8652 10.9336 14.9041C10.9725 14.943 10.9943 14.9958 10.9943 15.0508C10.9943 15.1058 10.9725 15.1585 10.9336 15.1974C10.8947 15.2363 10.842 15.2581 10.787 15.2581Z" fill="#9C5A19"/>
<path fill-rule="evenodd" clip-rule="evenodd" d="M9.85328 14.733C9.93754 14.6488 10.0518 14.6014 10.171 14.6014H10.7869C10.906 14.6014 11.0203 14.6488 11.1046 14.733C11.1889 14.8173 11.2362 14.9316 11.2362 15.0507C11.2362 15.1699 11.1889 15.2842 11.1046 15.3685C11.0203 15.4527 10.906 15.5001 10.7869 15.5001H10.171C10.0518 15.5001 9.93754 15.4527 9.85328 15.3685C9.76902 15.2842 9.72168 15.1699 9.72168 15.0507C9.72168 14.9316 9.76902 14.8173 9.85328 14.733Z" fill="#9C5A19"/>
<path d="M15.0506 5.60275H0.949195C0.894196 5.60275 0.84145 5.5809 0.80256 5.54201C0.763669 5.50312 0.741821 5.45037 0.741821 5.39537V2.71196C0.741821 2.54697 0.807366 2.38873 0.924036 2.27206C1.04071 2.15539 1.19894 2.08984 1.36394 2.08984H3.43767C3.49267 2.08984 3.54542 2.11169 3.58431 2.15058C3.6232 2.18947 3.64505 2.24222 3.64505 2.29722C3.64505 2.35222 3.6232 2.40496 3.58431 2.44385C3.54542 2.48274 3.49267 2.50459 3.43767 2.50459H1.36394C1.30894 2.50459 1.2562 2.52644 1.21731 2.56533C1.17842 2.60422 1.15657 2.65696 1.15657 2.71196V5.188H14.8432V2.71196C14.8432 2.65696 14.8214 2.60422 14.7825 2.56533C14.7436 2.52644 14.6908 2.50459 14.6358 2.50459H12.5621C12.5071 2.50459 12.4544 2.48274 12.4155 2.44385C12.3766 2.40496 12.3547 2.35222 12.3547 2.29722C12.3547 2.24222 12.3766 2.18947 12.4155 2.15058C12.4544 2.11169 12.5071 2.08984 12.5621 2.08984H14.6358C14.8008 2.08984 14.9591 2.15539 15.0757 2.27206C15.1924 2.38873 15.2579 2.54697 15.2579 2.71196V5.39537C15.2579 5.45037 15.2361 5.50312 15.1972 5.54201C15.1583 5.5809 15.1056 5.60275 15.0506 5.60275Z" fill="#9C5A19"/>
<path fill-rule="evenodd" clip-rule="evenodd" d="M0.753076 2.10104C0.915118 1.939 1.13489 1.84796 1.36406 1.84796H3.43779C3.55695 1.84796 3.67124 1.8953 3.7555 1.97956C3.83976 2.06382 3.8871 2.17811 3.8871 2.29727C3.8871 2.41643 3.83976 2.53072 3.7555 2.61498C3.67124 2.69924 3.55695 2.74658 3.43779 2.74658H1.39862V4.94612H14.6014V2.74658H12.5622C12.443 2.74658 12.3288 2.69924 12.2445 2.61498C12.1602 2.53072 12.1129 2.41643 12.1129 2.29727C12.1129 2.17811 12.1602 2.06382 12.2445 1.97956C12.3288 1.8953 12.443 1.84796 12.5622 1.84796H14.6359C14.8651 1.84796 15.0849 1.939 15.2469 2.10104C15.409 2.26308 15.5 2.48286 15.5 2.71202V5.39543C15.5 5.51459 15.4527 5.62887 15.3684 5.71314C15.2841 5.7974 15.1699 5.84474 15.0507 5.84474H0.949309C0.830144 5.84474 0.715861 5.7974 0.631599 5.71314C0.547338 5.62887 0.5 5.51459 0.5 5.39543V2.71202C0.5 2.48286 0.591034 2.26308 0.753076 2.10104Z" fill="#9C5A19"/>
<path d="M11.1107 2.50459H4.8895C4.8345 2.50459 4.78176 2.48274 4.74287 2.44385C4.70398 2.40496 4.68213 2.35222 4.68213 2.29722C4.68213 2.24222 4.70398 2.18947 4.74287 2.15058C4.78176 2.11169 4.8345 2.08984 4.8895 2.08984H11.1107C11.1657 2.08984 11.2184 2.11169 11.2573 2.15058C11.2962 2.18947 11.3181 2.24222 11.3181 2.29722C11.3181 2.35222 11.2962 2.40496 11.2573 2.44385C11.2184 2.48274 11.1657 2.50459 11.1107 2.50459Z" fill="#9C5A19"/>
<path fill-rule="evenodd" clip-rule="evenodd" d="M4.57191 1.97956C4.65617 1.8953 4.77045 1.84796 4.88962 1.84796H11.1108C11.23 1.84796 11.3443 1.8953 11.4285 1.97956C11.5128 2.06382 11.5601 2.17811 11.5601 2.29727C11.5601 2.41643 11.5128 2.53072 11.4285 2.61498C11.3443 2.69924 11.23 2.74658 11.1108 2.74658H4.88962C4.77045 2.74658 4.65617 2.69924 4.57191 2.61498C4.48764 2.53072 4.44031 2.41643 4.44031 2.29727C4.44031 2.17811 4.48764 2.06382 4.57191 1.97956Z" fill="#9C5A19"/>
<path d="M12.3744 3.85242H11.2985C11.1937 3.85231 11.0932 3.81063 11.0191 3.73653C10.945 3.66243 10.9034 3.56196 10.9033 3.45717V1.13707C10.9034 1.03228 10.945 0.93181 11.0191 0.85771C11.0932 0.783609 11.1937 0.741931 11.2985 0.741821H12.3744C12.4792 0.741931 12.5796 0.783609 12.6537 0.85771C12.7278 0.93181 12.7695 1.03228 12.7696 1.13707V3.45717C12.7695 3.56196 12.7278 3.66243 12.6537 3.73653C12.5796 3.81063 12.4792 3.85231 12.3744 3.85242ZM11.318 3.43767H12.3549V1.15657H11.318V3.43767Z" fill="#9C5A19"/>
<path fill-rule="evenodd" clip-rule="evenodd" d="M11.2984 0.5L12.3743 0.5C12.5432 0.500177 12.7053 0.56734 12.8247 0.68675C12.9441 0.80616 13.0113 0.968065 13.0115 1.13694V3.45728C13.0113 3.62615 12.9441 3.78831 12.8247 3.90772C12.7053 4.02713 12.5434 4.09429 12.3745 4.09447H11.2984C11.1296 4.09429 10.9674 4.02713 10.848 3.90772C10.7286 3.78831 10.6614 3.62641 10.6613 3.45753L10.6613 1.13719C10.6614 0.968318 10.7286 0.80616 10.848 0.68675C10.9674 0.56734 11.1296 0.500177 11.2984 0.5ZM11.5599 1.39862V3.19585H12.1129V1.39862H11.5599Z" fill="#9C5A19"/>
<path d="M4.7017 3.85242H3.62584C3.52105 3.85231 3.42058 3.81063 3.34648 3.73653C3.27238 3.66243 3.2307 3.56196 3.23059 3.45717V1.13707C3.2307 1.03228 3.27238 0.93181 3.34648 0.85771C3.42058 0.783609 3.52105 0.741931 3.62584 0.741821H4.7017C4.80649 0.741931 4.90696 0.783609 4.98106 0.85771C5.05516 0.93181 5.09684 1.03228 5.09695 1.13707V3.45717C5.09684 3.56196 5.05516 3.66243 4.98106 3.73653C4.90696 3.81063 4.80649 3.85231 4.7017 3.85242ZM3.64534 3.43767H4.6822V1.15657H3.64534V3.43767Z" fill="#9C5A19"/>
<path fill-rule="evenodd" clip-rule="evenodd" d="M3.62571 0.5L4.70157 0.5C4.87044 0.500177 5.0326 0.56734 5.15201 0.68675C5.27142 0.80616 5.33858 0.968064 5.33876 1.13694L5.33876 3.45728C5.33858 3.62615 5.27142 3.78831 5.15201 3.90772C5.0326 4.02713 4.87069 4.09429 4.70182 4.09447H3.62571C3.45684 4.09429 3.29469 4.02713 3.17527 3.90772C3.05586 3.78831 2.9887 3.62641 2.98853 3.45753L2.98853 1.13719C2.9887 0.968318 3.05586 0.80616 3.17527 0.68675C3.29469 0.567339 3.45684 0.500177 3.62571 0.5ZM3.88714 1.39862V3.19585H4.44014V1.39862H3.88714Z" fill="#9C5A19"/>
<path d="M13.0807 8.41038H11.9368C11.8268 8.41038 11.7213 8.36668 11.6435 8.2889C11.5657 8.21112 11.522 8.10563 11.522 7.99563V6.85176C11.522 6.74176 11.5657 6.63627 11.6435 6.55849C11.7213 6.48071 11.8268 6.43701 11.9368 6.43701H13.0807C13.1906 6.43701 13.2961 6.48071 13.3739 6.55849C13.4517 6.63627 13.4954 6.74176 13.4954 6.85176V7.99563C13.4954 8.10563 13.4517 8.21112 13.3739 8.2889C13.2961 8.36668 13.1906 8.41038 13.0807 8.41038ZM11.9368 6.85176V7.99563H13.0807V6.85176H11.9368Z" fill="#9C5A19"/>
<path d="M10.0745 8.41038H8.93068C8.82068 8.41038 8.71519 8.36668 8.63741 8.2889C8.55963 8.21112 8.51593 8.10563 8.51593 7.99563V6.85176C8.51593 6.74176 8.55963 6.63627 8.63741 6.55849C8.71519 6.48071 8.82068 6.43701 8.93068 6.43701H10.0745C10.1845 6.43701 10.29 6.48071 10.3678 6.55849C10.4456 6.63627 10.4893 6.74176 10.4893 6.85176V7.99563C10.4893 8.10563 10.4456 8.21112 10.3678 8.2889C10.29 8.36668 10.1845 8.41038 10.0745 8.41038ZM8.93068 6.85176V7.99563H10.0745V6.85176H8.93068Z" fill="#9C5A19"/>
<path d="M7.06906 8.41038H5.92622C5.81622 8.41038 5.71073 8.36668 5.63295 8.2889C5.55517 8.21112 5.51147 8.10563 5.51147 7.99563V6.85176C5.51147 6.74176 5.55517 6.63627 5.63295 6.55849C5.71073 6.48071 5.81622 6.43701 5.92622 6.43701H7.07009C7.18009 6.43701 7.28558 6.48071 7.36336 6.55849C7.44114 6.63627 7.48484 6.74176 7.48484 6.85176V7.99563C7.48484 8.05018 7.47408 8.1042 7.45317 8.15459C7.43226 8.20497 7.40162 8.25074 7.363 8.28927C7.32437 8.32779 7.27853 8.35832 7.22809 8.3791C7.17765 8.39989 7.12361 8.41051 7.06906 8.41038ZM5.92622 6.85176V7.99563H7.07009V6.85176H5.92622Z" fill="#9C5A19"/>
<path d="M13.0807 11.2098H11.9368C11.8268 11.2098 11.7213 11.1661 11.6435 11.0883C11.5657 11.0106 11.522 10.9051 11.522 10.7951V9.6512C11.522 9.5412 11.5657 9.43571 11.6435 9.35793C11.7213 9.28015 11.8268 9.23645 11.9368 9.23645H13.0807C13.1906 9.23645 13.2961 9.28015 13.3739 9.35793C13.4517 9.43571 13.4954 9.5412 13.4954 9.6512V10.7951C13.4954 10.9051 13.4517 11.0106 13.3739 11.0883C13.2961 11.1661 13.1906 11.2098 13.0807 11.2098ZM11.9368 9.6512V10.7951H13.0807V9.6512H11.9368Z" fill="#9C5A19"/>
<path d="M10.0745 11.2098H8.93068C8.82068 11.2098 8.71519 11.1661 8.63741 11.0883C8.55963 11.0106 8.51593 10.9051 8.51593 10.7951V9.6512C8.51593 9.5412 8.55963 9.43571 8.63741 9.35793C8.71519 9.28015 8.82068 9.23645 8.93068 9.23645H10.0745C10.1845 9.23645 10.29 9.28015 10.3678 9.35793C10.4456 9.43571 10.4893 9.5412 10.4893 9.6512V10.7951C10.4893 10.9051 10.4456 11.0106 10.3678 11.0883C10.29 11.1661 10.1845 11.2098 10.0745 11.2098ZM8.93068 9.6512V10.7951H10.0745V9.6512H8.93068Z" fill="#9C5A19"/>
<path d="M7.06906 11.2098H5.92622C5.81622 11.2098 5.71073 11.1661 5.63295 11.0883C5.55517 11.0106 5.51147 10.9051 5.51147 10.7951V9.6512C5.51147 9.5412 5.55517 9.43571 5.63295 9.35793C5.71073 9.28015 5.81622 9.23645 5.92622 9.23645H7.07009C7.18009 9.23645 7.28558 9.28015 7.36336 9.35793C7.44114 9.43571 7.48484 9.5412 7.48484 9.6512V10.7951C7.48484 10.8496 7.47408 10.9036 7.45317 10.954C7.43226 11.0044 7.40162 11.0502 7.363 11.0887C7.32437 11.1272 7.27853 11.1578 7.22809 11.1785C7.17765 11.1993 7.12361 11.21 7.06906 11.2098ZM5.92622 9.6512V10.7951H7.07009V9.6512H5.92622Z" fill="#9C5A19"/>
<path d="M4.06313 11.2098H2.91926C2.80927 11.2098 2.70377 11.1661 2.62599 11.0883C2.54821 11.0106 2.50452 10.9051 2.50452 10.7951V9.6512C2.50452 9.5412 2.54821 9.43571 2.62599 9.35793C2.70377 9.28015 2.80927 9.23645 2.91926 9.23645H4.06313C4.17313 9.23645 4.27862 9.28015 4.3564 9.35793C4.43418 9.43571 4.47788 9.5412 4.47788 9.6512V10.7951C4.47788 10.9051 4.43418 11.0106 4.3564 11.0883C4.27862 11.1661 4.17313 11.2098 4.06313 11.2098ZM2.91926 9.6512V10.7951H4.06313V9.6512H2.91926Z" fill="#9C5A19"/>
<path d="M10.0745 14.0095H8.93068C8.82068 14.0095 8.71519 13.9658 8.63741 13.888C8.55963 13.8102 8.51593 13.7047 8.51593 13.5948V12.4509C8.51593 12.3409 8.55963 12.2354 8.63741 12.1576C8.71519 12.0798 8.82068 12.0361 8.93068 12.0361H10.0745C10.1845 12.0361 10.29 12.0798 10.3678 12.1576C10.4456 12.2354 10.4893 12.3409 10.4893 12.4509V13.5948C10.4893 13.7047 10.4456 13.8102 10.3678 13.888C10.29 13.9658 10.1845 14.0095 10.0745 14.0095ZM8.93068 12.4509V13.5948H10.0745V12.4509H8.93068Z" fill="#9C5A19"/>
<path d="M7.06906 14.0095H5.92622C5.81622 14.0095 5.71073 13.9658 5.63295 13.888C5.55517 13.8102 5.51147 13.7047 5.51147 13.5947V12.4509C5.51147 12.3409 5.55517 12.2354 5.63295 12.1576C5.71073 12.0798 5.81622 12.0361 5.92622 12.0361H7.07009C7.18009 12.0361 7.28558 12.0798 7.36336 12.1576C7.44114 12.2354 7.48484 12.3409 7.48484 12.4509V13.5947C7.48484 13.6493 7.47408 13.7033 7.45317 13.7537C7.43226 13.8041 7.40162 13.8499 7.363 13.8884C7.32437 13.9269 7.27853 13.9574 7.22809 13.9782C7.17765 13.999 7.12361 14.0096 7.06906 14.0095ZM5.92622 12.4509V13.5947H7.07009V12.4509H5.92622Z" fill="#9C5A19"/>
<path d="M4.06313 14.0095H2.91926C2.80927 14.0095 2.70377 13.9658 2.62599 13.888C2.54821 13.8102 2.50452 13.7047 2.50452 13.5948V12.4509C2.50452 12.3409 2.54821 12.2354 2.62599 12.1576C2.70377 12.0798 2.80927 12.0361 2.91926 12.0361H4.06313C4.17313 12.0361 4.27862 12.0798 4.3564 12.1576C4.43418 12.2354 4.47788 12.3409 4.47788 12.4509V13.5948C4.47788 13.7047 4.43418 13.8102 4.3564 13.888C4.27862 13.9658 4.17313 14.0095 4.06313 14.0095ZM2.91926 12.4509V13.5948H4.06313V12.4509H2.91926Z" fill="#9C5A19"/>
</svg>
