<svg width="14" height="14" viewBox="0 0 14 14" fill="none" xmlns="http://www.w3.org/2000/svg">
<path d="M3.0358 9.19641C4.35589 10.7685 5.94498 12.0062 7.75871 12.882C8.44926 13.208 9.37276 13.5948 10.4016 13.6611C10.4654 13.6639 10.5264 13.6666 10.5902 13.6666C11.2808 13.6666 11.8354 13.429 12.2875 12.94C12.2903 12.9373 12.2958 12.9317 12.2986 12.9262C12.4594 12.7328 12.6425 12.5588 12.8338 12.3736C12.9642 12.2493 13.0973 12.1195 13.2249 11.9869C13.8156 11.3735 13.8156 10.5944 13.2193 10.0004L11.5526 8.33994C11.2697 8.04708 10.9313 7.89237 10.5764 7.89237C10.2214 7.89237 9.88027 8.04709 9.58908 8.33718L8.59624 9.32627C8.50472 9.27377 8.41043 9.22681 8.32168 9.1826C8.21075 9.12734 8.10814 9.07485 8.01662 9.01683C7.11253 8.44493 6.29164 7.69897 5.5068 6.74027C5.11022 6.24021 4.84398 5.82026 4.65817 5.39202C4.91886 5.15718 5.16291 4.91129 5.39864 4.67093C5.48184 4.58528 5.56781 4.49963 5.65378 4.41399C5.9533 4.1156 6.11415 3.77025 6.11415 3.41937C6.11415 3.0685 5.95607 2.72315 5.65378 2.42476L4.82734 1.60144C4.73028 1.50475 4.63876 1.41081 4.54447 1.31411C4.36143 1.12624 4.17008 0.932843 3.98149 0.758786C3.69584 0.479742 3.36028 0.333313 3.0053 0.333313C2.65309 0.333313 2.31475 0.479742 2.01801 0.761549L0.980798 1.79484C0.603631 2.17058 0.390088 2.62645 0.345715 3.15414C0.293023 3.81446 0.415047 4.51621 0.731202 5.36439C1.21653 6.67673 1.94867 7.89513 3.0358 9.19641ZM1.0224 3.21216C1.05568 2.84471 1.19711 2.53804 1.46335 2.27281L2.49501 1.24504C2.65586 1.09032 2.83335 1.0102 3.0053 1.0102C3.17447 1.0102 3.34641 1.09032 3.50449 1.25057C3.6903 1.42186 3.86501 1.60144 4.0536 1.79208C4.14789 1.88878 4.24495 1.98547 4.34202 2.08494L5.16846 2.90825C5.3404 3.07955 5.42915 3.25361 5.42915 3.4249C5.42915 3.59619 5.3404 3.77025 5.16846 3.94155C5.08249 4.02719 4.99652 4.1156 4.91054 4.20125C4.65263 4.46095 4.41135 4.70685 4.14512 4.94168C4.13957 4.94721 4.1368 4.94997 4.13125 4.9555C3.90107 5.18481 3.93712 5.40307 3.99259 5.56884C3.99536 5.57713 3.99813 5.58266 4.00091 5.59095C4.21445 6.10207 4.51119 6.58832 4.97433 7.16851C5.80631 8.19075 6.68267 8.98368 7.64778 9.59426C7.76703 9.67162 7.8946 9.7324 8.01385 9.79318C8.12478 9.84844 8.22739 9.90093 8.31891 9.95895C8.33 9.96448 8.33832 9.97 8.34942 9.97553C8.44094 10.0225 8.52968 10.0446 8.61843 10.0446C8.84029 10.0446 8.9845 9.9037 9.03165 9.85673L10.0689 8.82343C10.2297 8.66319 10.4044 8.57755 10.5764 8.57755C10.7871 8.57755 10.9591 8.7074 11.0672 8.82343L12.7395 10.4866C13.0723 10.8182 13.0695 11.1774 12.7312 11.5282C12.6147 11.6526 12.4927 11.7714 12.3624 11.8957C12.1682 12.0836 11.9658 12.277 11.7827 12.4952C11.4638 12.8378 11.0839 12.998 10.593 12.998C10.5459 12.998 10.4959 12.9953 10.4488 12.9925C9.53916 12.9345 8.6933 12.5809 8.05822 12.2797C6.33324 11.4481 4.81903 10.2684 3.56273 8.77094C2.52829 7.53044 1.8322 6.37558 1.37183 5.13784C1.08618 4.37807 0.978024 3.76749 1.0224 3.21216Z" fill="#9C5A19" stroke="#9C5A19" stroke-width="0.2"/>
</svg>
