<svg width="16" height="19" viewBox="0 0 16 19" fill="none" xmlns="http://www.w3.org/2000/svg">
<path d="M15.6697 14.7434C15.6102 14.708 15.1629 14.4209 14.715 13.5523C13.8924 11.9572 13.7197 9.71025 13.7197 8.10617C13.7197 8.09918 13.7195 8.09227 13.7193 8.08533C13.7103 5.96533 12.3247 4.13781 10.342 3.31784V2.0638C10.342 0.925809 9.33319 0 8.09318 0H7.90681C6.6668 0 5.65798 0.925809 5.65798 2.0638V3.31777C3.66862 4.14038 2.2803 5.97723 2.2803 8.10617C2.2803 9.71025 2.10764 11.9572 1.28503 13.5523C0.837136 14.4209 0.389794 14.708 0.330317 14.7434C0.0798499 14.8496 -0.0436461 15.0949 0.0139748 15.3435C0.0721486 15.5946 0.328303 15.7677 0.608035 15.7677H4.95022C4.97446 17.2925 6.3328 18.5263 8.00002 18.5263C9.66723 18.5263 11.0256 17.2925 11.0498 15.7677H15.392C15.6717 15.7677 15.9279 15.5946 15.9861 15.3435C16.0436 15.0949 15.9201 14.8495 15.6697 14.7434ZM6.84282 2.0638C6.84282 1.52535 7.32014 1.0873 7.90685 1.0873H8.09322C8.67993 1.0873 9.15725 1.52535 9.15725 2.0638V2.9654C8.78333 2.89459 8.39625 2.85732 7.99986 2.85732C7.60358 2.85732 7.21662 2.89456 6.84286 2.9653V2.0638H6.84282ZM8.00002 17.439C6.9861 17.439 6.15907 16.693 6.13502 15.7677H9.86497C9.84096 16.693 9.01393 17.439 8.00002 17.439ZM10.3854 14.6804C10.3853 14.6804 1.95812 14.6804 1.95812 14.6804C2.0606 14.534 2.1649 14.3684 2.26857 14.1811C3.06255 12.7466 3.46515 10.7027 3.46515 8.10617C3.46515 5.81147 5.49941 3.94462 7.99982 3.94462C10.5002 3.94462 12.5345 5.81147 12.5345 8.10798C12.5345 8.11467 12.5346 8.12133 12.5349 8.12799C12.5371 10.7141 12.9397 12.7507 13.7315 14.1811C13.8351 14.3684 13.9395 14.534 14.0419 14.6804H10.3854Z" fill="#6C6C6C"/>
</svg>
