<svg width="105" height="44" viewBox="0 0 105 44" fill="none" xmlns="http://www.w3.org/2000/svg">
<rect width="105" height="44" rx="6" fill="#FFF2EE"/>
<path d="M46.7621 20.084C46.7621 20.78 46.5221 21.36 46.0421 21.824C45.5701 22.28 44.8461 22.508 43.8701 22.508H42.2621V26H41.1701V17.636H43.8701C44.8141 17.636 45.5301 17.864 46.0181 18.32C46.5141 18.776 46.7621 19.364 46.7621 20.084ZM43.8701 21.608C44.4781 21.608 44.9261 21.476 45.2141 21.212C45.5021 20.948 45.6461 20.572 45.6461 20.084C45.6461 19.052 45.0541 18.536 43.8701 18.536H42.2621V21.608H43.8701ZM48.6833 18.356C48.4753 18.356 48.2993 18.284 48.1553 18.14C48.0113 17.996 47.9393 17.82 47.9393 17.612C47.9393 17.404 48.0113 17.228 48.1553 17.084C48.2993 16.94 48.4753 16.868 48.6833 16.868C48.8833 16.868 49.0513 16.94 49.1873 17.084C49.3313 17.228 49.4033 17.404 49.4033 17.612C49.4033 17.82 49.3313 17.996 49.1873 18.14C49.0513 18.284 48.8833 18.356 48.6833 18.356ZM49.2113 19.424V26H48.1193V19.424H49.2113ZM54.2764 19.304C55.0764 19.304 55.7244 19.548 56.2204 20.036C56.7164 20.516 56.9644 21.212 56.9644 22.124V26H55.8844V22.28C55.8844 21.624 55.7204 21.124 55.3924 20.78C55.0644 20.428 54.6164 20.252 54.0484 20.252C53.4724 20.252 53.0124 20.432 52.6684 20.792C52.3324 21.152 52.1644 21.676 52.1644 22.364V26H51.0724V19.424H52.1644V20.36C52.3804 20.024 52.6724 19.764 53.0404 19.58C53.4164 19.396 53.8284 19.304 54.2764 19.304ZM60.0802 20.324V24.2C60.0802 24.52 60.1482 24.748 60.2842 24.884C60.4202 25.012 60.6562 25.076 60.9922 25.076H61.7962V26H60.8122C60.2042 26 59.7482 25.86 59.4442 25.58C59.1402 25.3 58.9882 24.84 58.9882 24.2V20.324H58.1362V19.424H58.9882V17.768H60.0802V19.424H61.7962V20.324H60.0802ZM64.2113 20.492C64.4033 20.116 64.6753 19.824 65.0273 19.616C65.3873 19.408 65.8233 19.304 66.3353 19.304V20.432H66.0473C64.8233 20.432 64.2113 21.096 64.2113 22.424V26H63.1193V19.424H64.2113V20.492ZM73.5959 22.46C73.5959 22.668 73.5839 22.888 73.5599 23.12H68.3039C68.3439 23.768 68.5639 24.276 68.9639 24.644C69.3719 25.004 69.8639 25.184 70.4399 25.184C70.9119 25.184 71.3039 25.076 71.6159 24.86C71.9359 24.636 72.1599 24.34 72.2879 23.972H73.4639C73.2879 24.604 72.9359 25.12 72.4079 25.52C71.8799 25.912 71.2239 26.108 70.4399 26.108C69.8159 26.108 69.2559 25.968 68.7599 25.688C68.2719 25.408 67.8879 25.012 67.6079 24.5C67.3279 23.98 67.1879 23.38 67.1879 22.7C67.1879 22.02 67.3239 21.424 67.5959 20.912C67.8679 20.4 68.2479 20.008 68.7359 19.736C69.2319 19.456 69.7999 19.316 70.4399 19.316C71.0639 19.316 71.6159 19.452 72.0959 19.724C72.5759 19.996 72.9439 20.372 73.1999 20.852C73.4639 21.324 73.5959 21.86 73.5959 22.46ZM72.4679 22.232C72.4679 21.816 72.3759 21.46 72.1919 21.164C72.0079 20.86 71.7559 20.632 71.4359 20.48C71.1239 20.32 70.7759 20.24 70.3919 20.24C69.8399 20.24 69.3679 20.416 68.9759 20.768C68.5919 21.12 68.3719 21.608 68.3159 22.232H72.4679ZM77.3653 26.108C76.8613 26.108 76.4093 26.024 76.0093 25.856C75.6093 25.68 75.2933 25.44 75.0613 25.136C74.8293 24.824 74.7013 24.468 74.6773 24.068H75.8053C75.8373 24.396 75.9893 24.664 76.2613 24.872C76.5413 25.08 76.9053 25.184 77.3533 25.184C77.7693 25.184 78.0973 25.092 78.3373 24.908C78.5773 24.724 78.6973 24.492 78.6973 24.212C78.6973 23.924 78.5693 23.712 78.3133 23.576C78.0573 23.432 77.6613 23.292 77.1253 23.156C76.6373 23.028 76.2373 22.9 75.9253 22.772C75.6213 22.636 75.3573 22.44 75.1333 22.184C74.9173 21.92 74.8093 21.576 74.8093 21.152C74.8093 20.816 74.9093 20.508 75.1093 20.228C75.3093 19.948 75.5933 19.728 75.9613 19.568C76.3293 19.4 76.7493 19.316 77.2213 19.316C77.9493 19.316 78.5373 19.5 78.9853 19.868C79.4333 20.236 79.6733 20.74 79.7053 21.38H78.6133C78.5893 21.036 78.4493 20.76 78.1933 20.552C77.9453 20.344 77.6093 20.24 77.1853 20.24C76.7933 20.24 76.4813 20.324 76.2493 20.492C76.0173 20.66 75.9013 20.88 75.9013 21.152C75.9013 21.368 75.9693 21.548 76.1053 21.692C76.2493 21.828 76.4253 21.94 76.6333 22.028C76.8493 22.108 77.1453 22.2 77.5213 22.304C77.9933 22.432 78.3773 22.56 78.6733 22.688C78.9693 22.808 79.2213 22.992 79.4293 23.24C79.6453 23.488 79.7573 23.812 79.7653 24.212C79.7653 24.572 79.6653 24.896 79.4653 25.184C79.2653 25.472 78.9813 25.7 78.6133 25.868C78.2533 26.028 77.8373 26.108 77.3653 26.108ZM82.6388 20.324V24.2C82.6388 24.52 82.7068 24.748 82.8428 24.884C82.9788 25.012 83.2148 25.076 83.5508 25.076H84.3548V26H83.3708C82.7628 26 82.3068 25.86 82.0028 25.58C81.6988 25.3 81.5468 24.84 81.5468 24.2V20.324H80.6948V19.424H81.5468V17.768H82.6388V19.424H84.3548V20.324H82.6388Z" fill="#CB2027"/>
<g clip-path="url(#clip0)">
<path d="M27.1016 12.064C24.1113 12.4247 21.1314 15.0389 21.0084 18.7733C20.9311 21.0534 21.5303 22.7639 23.5385 23.2443C24.4099 21.5831 23.2574 21.2167 23.0782 20.0149C22.342 15.0902 28.335 11.7318 31.4712 15.1699C33.6411 17.5507 32.2126 24.8751 28.7128 24.1138C25.3605 23.3866 30.3538 17.5564 27.6779 16.4116C25.5028 15.4813 24.3467 19.2574 25.378 21.1331C24.7736 24.3587 23.4717 27.3982 23.9988 31.4439C25.7083 30.1035 26.2846 27.5368 26.7572 24.8599C27.6164 25.4237 28.075 26.0104 29.1713 26.1015C33.2141 26.4394 35.4718 21.7406 34.9201 17.4064C34.4299 13.5638 30.8809 11.6084 27.1016 12.064Z" fill="#CB2027"/>
</g>
<defs>
<clipPath id="clip0">
<rect width="14" height="19.4444" fill="white" transform="translate(21 12)"/>
</clipPath>
</defs>
</svg>
