<svg width="24" height="19" viewBox="0 0 24 19" fill="none" xmlns="http://www.w3.org/2000/svg">
<path d="M15.1864 0.933573C15.3843 0.417975 15.9628 0.160455 16.4784 0.358386L23.0664 2.88744C23.582 3.08537 23.8395 3.6638 23.6416 4.1794L18.3304 18.0147C18.1325 18.5303 17.554 18.7879 17.0385 18.5899L10.4504 16.0609C9.93481 15.8629 9.67729 15.2845 9.87522 14.7689L15.1864 0.933573Z" fill="white"/>
<path fill-rule="evenodd" clip-rule="evenodd" d="M22.708 3.82101L16.12 1.29196L10.8088 15.1273L17.3968 17.6564L22.708 3.82101ZM16.4784 0.358386C15.9628 0.160455 15.3843 0.417975 15.1864 0.933573L9.87522 14.7689C9.67729 15.2845 9.93481 15.8629 10.4504 16.0609L17.0385 18.5899C17.5541 18.7879 18.1325 18.5303 18.3304 18.0147L23.6416 4.1794C23.8395 3.6638 23.582 3.08537 23.0664 2.88744L16.4784 0.358386Z" fill="#646464"/>
<path d="M8.81359 0.935664C8.61565 0.420065 8.03722 0.162545 7.52163 0.360476L0.933588 2.88953C0.417989 3.08746 0.160468 3.66589 0.358399 4.18149L5.66959 18.0168C5.86752 18.5324 6.44595 18.79 6.96155 18.592L13.5496 16.063C14.0652 15.865 14.3227 15.2866 14.1248 14.771L8.81359 0.935664Z" fill="white"/>
<path fill-rule="evenodd" clip-rule="evenodd" d="M1.29197 3.8231L7.88001 1.29405L13.1912 15.1294L6.60316 17.6584L1.29197 3.8231ZM7.52163 0.360476C8.03722 0.162545 8.61565 0.420065 8.81359 0.935664L14.1248 14.771C14.3227 15.2866 14.0652 15.865 13.5496 16.063L6.96155 18.592C6.44595 18.79 5.86752 18.5324 5.66959 18.0168L0.358399 4.18149C0.160468 3.66589 0.417989 3.08746 0.933588 2.88953L7.52163 0.360476Z" fill="#646464"/>
<path d="M5.922 0.999999C5.922 0.447714 6.36971 0 6.922 0H16.766C17.3183 0 17.766 0.447715 17.766 1V17.9504C17.766 18.5026 17.3183 18.9503 16.766 18.9503H6.922C6.36971 18.9503 5.922 18.5026 5.922 17.9503V0.999999Z" fill="white"/>
<path fill-rule="evenodd" clip-rule="evenodd" d="M16.766 1L6.922 0.999999L6.922 17.9503L16.766 17.9504V1ZM6.922 0C6.36971 0 5.922 0.447714 5.922 0.999999V17.9503C5.922 18.5026 6.36971 18.9503 6.922 18.9503H16.766C17.3183 18.9503 17.766 18.5026 17.766 17.9504V1C17.766 0.447715 17.3182 0 16.766 0H6.922Z" fill="white"/>
<path d="M6.80045 1.00209C6.80045 0.449805 7.24816 0.00209045 7.80045 0.00209045H16.0012C16.5535 0.00209045 17.0012 0.449806 17.0012 1.00209V17.9464C17.0012 18.4987 16.5535 18.9464 16.0012 18.9464H7.80045C7.24816 18.9464 6.80045 18.4987 6.80045 17.9464V1.00209Z" fill="white"/>
<path fill-rule="evenodd" clip-rule="evenodd" d="M16.0012 1.00209H7.80045V17.9464H16.0012L16.0012 1.00209ZM7.80045 0.00209045C7.24816 0.00209045 6.80045 0.449805 6.80045 1.00209V17.9464C6.80045 18.4987 7.24816 18.9464 7.80045 18.9464H16.0012C16.5535 18.9464 17.0012 18.4987 17.0012 17.9464V1.00209C17.0012 0.449806 16.5535 0.00209045 16.0012 0.00209045H7.80045Z" fill="#646464"/>
</svg>
