<svg width="17" height="17" viewBox="0 0 17 17" fill="none" xmlns="http://www.w3.org/2000/svg">
<path d="M6.84296 9.15002H0.634988C0.367137 9.15002 0.149994 9.36722 0.149994 9.63502V15.843C0.149994 16.1108 0.367137 16.328 0.634988 16.328H6.84296C7.11081 16.328 7.32796 16.1108 7.32796 15.843V9.63502C7.32796 9.36722 7.11081 9.15002 6.84296 9.15002ZM6.35797 15.358H1.11998V10.1201H6.35792V15.358H6.35797Z" fill="#6C6C6C"/>
<path fill-rule="evenodd" clip-rule="evenodd" d="M0 9.63499C0 9.28436 0.284291 9 0.634994 9H6.84297C7.19367 9 7.47796 9.28436 7.47796 9.63499V15.843C7.47796 16.1936 7.19367 16.478 6.84297 16.478H0.634994C0.284291 16.478 0 16.1936 0 15.843V9.63499ZM0.634994 9.3C0.449996 9.3 0.3 9.45002 0.3 9.63499V15.843C0.3 16.0279 0.449996 16.178 0.634994 16.178H6.84297C7.02797 16.178 7.17796 16.0279 7.17796 15.843V9.63499C7.17796 9.45002 7.02797 9.3 6.84297 9.3H0.634994ZM0.969988 9.97004H6.50793V15.358H6.35798V15.508H0.969988V9.97004ZM6.20793 15.208H1.26999V10.27H6.20793V15.208Z" fill="#6C6C6C"/>
<path d="M15.5242 0.150024H9.31631C9.04846 0.150024 8.83131 0.367216 8.83131 0.635019V6.84299C8.83131 7.1108 9.04846 7.32799 9.31631 7.32799H15.5243C15.7921 7.32799 16.0093 7.1108 16.0093 6.84299V0.635019C16.0092 0.367216 15.7921 0.150024 15.5242 0.150024ZM15.0392 6.35795H9.8013V1.12001H15.0392V6.35795Z" fill="#6C6C6C"/>
<path fill-rule="evenodd" clip-rule="evenodd" d="M8.68132 0.634994C8.68132 0.284359 8.96561 0 9.31631 0H15.5242C15.875 0 16.1592 0.284368 16.1593 0.634967V6.84297C16.1593 7.1936 15.875 7.47796 15.5243 7.47796H9.31631C8.96561 7.47796 8.68132 7.1936 8.68132 6.84297V0.634994ZM9.31631 0.3C9.13132 0.3 8.98132 0.450025 8.98132 0.634994V6.84297C8.98132 7.02794 9.13132 7.17796 9.31631 7.17796H15.5243C15.7093 7.17796 15.8593 7.02794 15.8593 6.84297V0.635021C15.8593 0.635012 15.8593 0.635031 15.8593 0.635021C15.8592 0.450028 15.7093 0.3 15.5242 0.3H9.31631ZM9.65131 0.969988H15.1892V6.35793H15.0392V6.50793H9.65131V0.969988ZM14.8892 6.20793V1.26999H9.95131V6.20793H14.8892Z" fill="#6C6C6C"/>
<path d="M15.5243 9.15002H14.7845C14.5166 9.15002 14.2995 9.36722 14.2995 9.63502C14.2995 9.90282 14.5166 10.12 14.7845 10.12H15.0393V15.3579H9.8013V10.1201H10.4518C10.7197 10.1201 10.9368 9.90287 10.9368 9.63507C10.9368 9.36726 10.7197 9.15007 10.4518 9.15007H9.31631C9.04846 9.15007 8.83131 9.36726 8.83131 9.63507V15.843C8.83131 16.1108 9.04846 16.328 9.31631 16.328H15.5243C15.7921 16.328 16.0093 16.1108 16.0093 15.843V9.63502C16.0093 9.36722 15.7921 9.15002 15.5243 9.15002Z" fill="#6C6C6C"/>
<path fill-rule="evenodd" clip-rule="evenodd" d="M14.1495 9.63499C14.1495 9.28436 14.4338 9 14.7845 9H15.5243C15.875 9 16.1593 9.28436 16.1593 9.63499V15.843C16.1593 16.1937 15.875 16.478 15.5243 16.478H9.31631C8.96561 16.478 8.68132 16.1937 8.68132 15.843V9.63504C8.68132 9.28441 8.96561 9.00005 9.31631 9.00005H10.4518C10.8025 9.00005 11.0868 9.28441 11.0868 9.63504C11.0868 9.98568 10.8025 10.27 10.4518 10.27H9.95131V15.2079H14.8893V10.27H14.7845C14.4338 10.27 14.1495 9.98563 14.1495 9.63499ZM14.7845 9.3C14.5995 9.3 14.4495 9.45002 14.4495 9.63499C14.4495 9.81996 14.5995 9.96999 14.7845 9.96999H15.1893V15.5079H9.65131V9.97004H10.4518C10.6368 9.97004 10.7868 9.82001 10.7868 9.63504C10.7868 9.45007 10.6368 9.30005 10.4518 9.30005H9.31631C9.13132 9.30005 8.98132 9.45007 8.98132 9.63504V15.843C8.98132 16.028 9.13132 16.178 9.31631 16.178H15.5243C15.7093 16.178 15.8593 16.028 15.8593 15.843V9.63499C15.8593 9.45002 15.7093 9.3 15.5243 9.3H14.7845Z" fill="#6C6C6C"/>
<circle cx="12.5" cy="9.5" r="0.5" fill="#6C6C6C" stroke="#6C6C6C" stroke-width="0.2"/>
<path d="M0.635003 7.328H1.37479C1.64265 7.328 1.85979 7.11081 1.85979 6.84301C1.85979 6.57521 1.64265 6.35802 1.37479 6.35802H1.12L1.12 1.12008L6.35798 1.12008L6.35798 6.35797H5.70748C5.43962 6.35797 5.22248 6.57516 5.22248 6.84296C5.22248 7.11076 5.43962 7.32796 5.70748 7.32796H6.84298C7.11083 7.32796 7.32797 7.11076 7.32797 6.84296L7.32797 0.634986C7.32797 0.367184 7.11083 0.149992 6.84298 0.149992L0.635003 0.149992C0.367152 0.149992 0.150009 0.367184 0.150009 0.634986L0.150009 6.84301C0.150009 7.11081 0.367152 7.328 0.635003 7.328Z" fill="#6C6C6C"/>
<path fill-rule="evenodd" clip-rule="evenodd" d="M2.00978 6.84303C2.00978 7.19367 1.72549 7.47803 1.37479 7.47803H0.634997C0.284294 7.47803 2.86102e-06 7.19367 2.86102e-06 6.84303L2.86102e-06 0.635011C2.86102e-06 0.284376 0.284294 1.66893e-05 0.634997 1.66893e-05L6.84297 1.66893e-05C7.19368 1.66893e-05 7.47797 0.284376 7.47797 0.635011L7.47797 6.84299C7.47797 7.19362 7.19368 7.47798 6.84297 7.47798H5.70747C5.35677 7.47798 5.07248 7.19362 5.07248 6.84299C5.07248 6.49235 5.35677 6.20799 5.70747 6.20799H6.20798L6.20798 1.2701L1.26999 1.2701L1.26999 6.20804H1.37479C1.72549 6.20804 2.00978 6.4924 2.00978 6.84303ZM1.37479 7.17803C1.55979 7.17803 1.70978 7.028 1.70978 6.84303C1.70978 6.65806 1.55979 6.50804 1.37479 6.50804H0.969991L0.969991 0.970103L6.50798 0.970103L6.50798 6.50799H5.70747C5.52247 6.50799 5.37248 6.65802 5.37248 6.84299C5.37248 7.02796 5.52247 7.17798 5.70747 7.17798H6.84297C7.02797 7.17798 7.17797 7.02796 7.17797 6.84299L7.17797 0.635011C7.17797 0.450042 7.02797 0.300017 6.84297 0.300017L0.634997 0.300017C0.449998 0.300017 0.300003 0.450042 0.300003 0.635011L0.300003 6.84303C0.300003 7.028 0.449998 7.17803 0.634997 7.17803H1.37479Z" fill="#6C6C6C"/>
<circle cx="3.6593" cy="6.97803" r="0.5" transform="rotate(-180 3.6593 6.97803)" fill="#6C6C6C" stroke="#6C6C6C" stroke-width="0.2"/>
</svg>
