<svg width="18" height="18" viewBox="0 0 18 18" fill="none" xmlns="http://www.w3.org/2000/svg">
<path d="M16.5722 11.4262C15.9756 10.902 15.2522 10.4491 14.4218 10.0801C14.0668 9.92244 13.6513 10.0823 13.4937 10.4371C13.336 10.792 13.4959 11.2074 13.8507 11.3652C14.551 11.6764 15.1544 12.0523 15.644 12.4825C16.2475 13.0129 16.5938 13.7808 16.5938 14.5898V15.8906C16.5938 16.2783 16.2783 16.5938 15.8906 16.5938H2.10938C1.72169 16.5938 1.40625 16.2783 1.40625 15.8906V14.5898C1.40625 13.7808 1.75246 13.0129 2.35602 12.4825C3.06642 11.8582 5.13625 10.4062 9 10.4062C11.8689 10.4062 14.2031 8.07207 14.2031 5.20312C14.2031 2.33418 11.8689 0 9 0C6.13106 0 3.79688 2.33418 3.79688 5.20312C3.79688 6.88033 4.59476 8.37447 5.83072 9.32657C3.56918 9.8237 2.16238 10.7806 1.42781 11.4262C0.520477 12.2234 0 13.3764 0 14.5898V15.8906C0 17.0538 0.946198 18 2.10938 18H15.8906C17.0538 18 18 17.0538 18 15.8906V14.5898C18 13.3764 17.4795 12.2234 16.5722 11.4262ZM5.20312 5.20312C5.20312 3.10954 6.90642 1.40625 9 1.40625C11.0936 1.40625 12.7969 3.10954 12.7969 5.20312C12.7969 7.29671 11.0936 9 9 9C6.90642 9 5.20312 7.29671 5.20312 5.20312Z" fill="#6C6C6C"/>
</svg>
