<svg width="46" height="29" viewBox="0 0 46 29" fill="none" xmlns="http://www.w3.org/2000/svg">
<path d="M45.5226 2.58654C45.2264 2.41095 44.8602 2.4041 44.5579 2.56902L34.0036 8.33474V4.87523C34.0005 2.18395 31.8207 0.00304702 29.1307 0H4.87288C2.1829 0.00304702 0.00304555 2.18395 0 4.87523V24.1248C0.00304555 26.816 2.1829 28.997 4.87288 29H29.1307C31.8207 28.997 34.0005 26.816 34.0036 24.1248V20.7281L44.5583 26.4938C44.8602 26.6587 45.2268 26.6523 45.5226 26.4767C45.8188 26.3007 46 25.9819 46 25.638V3.42485C46 3.08054 45.8184 2.76212 45.5226 2.58654ZM32.0537 24.1252C32.0521 25.7401 30.7441 27.0484 29.1299 27.0503H4.87288C3.25874 27.0484 1.95106 25.7401 1.94915 24.1252V4.87523C1.95106 3.26069 3.25874 1.952 4.87288 1.95009H29.1307C30.7445 1.952 32.0525 3.26069 32.0544 4.87523L32.0537 24.1252ZM44.0508 23.9949L34.0036 18.5064V10.5564L44.0508 5.06833V23.9949Z" fill="#9C5A19"/>
</svg>
