<svg width="35" height="34" viewBox="0 0 35 34" fill="none" xmlns="http://www.w3.org/2000/svg">
<path d="M5.6666 0C4.08927 0 3.01239 1.07022 2.51383 2.06732L0.0852209 6.92297C0.0219239 7.04978 -0.00697244 7.19099 0.00142112 7.33248V10.524C0.00143565 10.8591 0.207946 11.1596 0.520821 11.2798C0.520821 11.2798 1.00843 11.4603 1.61971 11.6513V29.288C0.681831 29.6248 0.00142222 30.5239 0.00142112 31.5712V33.1902C0.00146581 33.6373 0.363882 33.9997 0.810958 33.9998H33.1917C33.6387 33.9997 34.0011 33.6373 34.0012 33.1902V31.5712C34.0012 30.5236 33.3204 29.6246 32.3821 29.288V11.6513C32.9932 11.4602 33.4786 11.2798 33.4786 11.2798C33.7928 11.1607 34.0007 10.8599 34.0012 10.524L33.9988 7.28504C33.9991 7.15942 33.9701 7.03546 33.9142 6.92297L31.488 2.06732C30.9894 1.07022 29.9102 0 28.3329 0H5.6666ZM5.6666 1.61986H28.3329C29.1841 1.61986 29.7352 2.18324 30.0389 2.79069L31.8801 6.47472H2.11934L2.92809 4.8588H8.09521C9.17486 4.8588 9.17486 3.23894 8.09521 3.23894H3.73842L3.96294 2.79069C4.26666 2.18324 4.81532 1.61986 5.6666 1.61986ZM1.6205 8.09458H32.3813V9.94371C32.172 10.0176 32.1062 10.0479 31.7576 10.1532C31.1168 10.3466 30.3127 10.524 29.9527 10.524C29.5928 10.524 29.1544 10.3737 28.623 10.1714C28.0916 9.96901 27.4696 9.71366 26.7169 9.71366C25.9643 9.71366 25.3383 9.96901 24.8069 10.1714C24.2756 10.3738 23.838 10.524 23.478 10.524C23.118 10.524 22.6765 10.3737 22.1451 10.1714C21.6137 9.96901 20.9909 9.71366 20.2383 9.71366C19.4856 9.71366 18.8636 9.96901 18.3322 10.1714C17.8008 10.3738 17.3593 10.524 16.9993 10.524C16.6394 10.524 16.2018 10.3737 15.6704 10.1714C15.139 9.96901 14.5162 9.71366 13.7636 9.71366C13.0109 9.71366 12.3857 9.96901 11.8543 10.1714C11.323 10.3738 10.8846 10.524 10.5246 10.524C10.1647 10.524 9.7239 10.3737 9.19252 10.1714C8.66113 9.96901 8.03832 9.71366 7.28568 9.71366C6.53303 9.71366 5.91101 9.96901 5.37963 10.1714C4.84824 10.3738 4.4067 10.524 4.04674 10.524C3.68677 10.524 2.88585 10.3466 2.24504 10.1532C1.89637 10.048 1.82978 10.0176 1.6205 9.94371V8.09458ZM7.28568 11.3335C7.64564 11.3335 8.08718 11.4838 8.61857 11.6861C9.14995 11.8885 9.77197 12.1431 10.5246 12.1431C11.2773 12.1431 11.9001 11.8885 12.4315 11.6861C12.9628 11.4837 13.4036 11.3335 13.7636 11.3335C14.1235 11.3335 14.5619 11.4838 15.0933 11.6861C15.6247 11.8885 16.2467 12.1431 16.9993 12.1431C17.752 12.1431 18.3779 11.8885 18.9093 11.6861C19.4407 11.4837 19.8783 11.3335 20.2383 11.3335C20.5982 11.3335 21.0398 11.4838 21.5712 11.6861C22.1025 11.8885 22.7254 12.1431 23.478 12.1431C24.2306 12.1431 24.8527 11.8885 25.384 11.6861C25.9154 11.4837 26.357 11.3335 26.7169 11.3335C27.0769 11.3335 27.5145 11.4838 28.0459 11.6861C28.5773 11.8885 29.2001 12.1431 29.9527 12.1431C30.2174 12.1431 30.4902 12.109 30.763 12.0632V29.1433H24.2875V18.6178H25.0971C26.2457 18.6915 26.2457 16.9282 25.0971 17.0019H8.90554C7.75692 16.9282 7.75692 18.6915 8.90554 18.6178H9.71508V29.1433H3.23878V12.0632C3.5107 12.1089 3.78245 12.1431 4.04674 12.1431C4.79938 12.1431 5.42456 11.8885 5.95595 11.6861C6.48733 11.4837 6.92571 11.3335 7.28568 11.3335ZM11.3349 18.6178H16.1898V29.1433H11.3349V18.6178ZM17.8097 18.6178H22.6677V29.1433H17.8097V18.6178ZM2.43082 30.7608H31.5718C32.0343 30.7608 32.3813 31.1087 32.3813 31.5712V32.3807H1.6205V31.5712C1.6205 31.1087 1.96834 30.7608 2.43082 30.7608Z" fill="#646464"/>
</svg>
