<svg width="16" height="16" viewBox="0 0 16 16" fill="none" xmlns="http://www.w3.org/2000/svg">
<path d="M8.002 0H7.998C3.587 0 0 3.588 0 8C0 9.75 0.564 11.372 1.523 12.689L0.526 15.661L3.601 14.678C4.866 15.516 6.375 16 8.002 16C12.413 16 16 12.411 16 8C16 3.589 12.413 0 8.002 0Z" fill="#4CAF50"/>
<path d="M12.6076 11.353C12.4154 11.899 11.6528 12.3518 11.0444 12.484C10.6283 12.5732 10.0847 12.6443 8.25473 11.881C5.91403 10.9053 4.40666 8.51205 4.28918 8.35678C4.17667 8.2015 3.34334 7.08955 3.34334 5.93953C3.34334 4.78951 3.92378 4.22953 4.15775 3.9891C4.34991 3.79176 4.66751 3.7016 4.97217 3.7016C5.07074 3.7016 5.15935 3.70661 5.239 3.71062C5.47297 3.72063 5.59045 3.73466 5.74477 4.10631C5.93692 4.57213 6.40487 5.72215 6.46062 5.84036C6.51737 5.95856 6.57412 6.11885 6.49447 6.27412C6.4198 6.4344 6.35409 6.50552 6.23661 6.64176C6.11912 6.778 6.00761 6.88219 5.89013 7.02844C5.7826 7.15567 5.66114 7.29191 5.79654 7.52732C5.93195 7.75772 6.39989 8.52607 7.08886 9.14316C7.97794 9.93956 8.69877 10.194 8.95664 10.3022C9.14879 10.3823 9.37778 10.3633 9.51817 10.213C9.69638 10.0197 9.91641 9.69913 10.1404 9.38358C10.2997 9.15718 10.5008 9.12913 10.7119 9.20927C10.927 9.28441 12.065 9.8504 12.2989 9.96761C12.5329 10.0858 12.6872 10.1419 12.744 10.2411C12.7997 10.3403 12.7997 10.8061 12.6076 11.353Z" fill="#FAFAFA"/>
</svg>
